<svg xmlns="http://www.w3.org/2000/svg" width="18" height="27" viewBox="0 0 18 27"><g fill="#CC2E32" fill-rule="evenodd"><path d="M8.66 26.864c-4.783 0-8.66-3.732-8.66-8.337 0-.64.168-1.462.456-2.4 1.024-3.33 3.57-8.143 5.557-11.644C7.493 1.878 8.66 0 8.66 0s1.172 1.883 2.652 4.493c.665 1.17 2.051 3.776 2.051 3.776l.047.09s-.325.543-.501.853c-1.25 2.201-2.852 5.228-3.496 7.323-.182.59-.287 1.107-.287 1.51 0 2.896 2.439 5.243 5.448 5.243.438 0 .864-.05 1.273-.144-1.536 2.247-4.182 3.72-7.187 3.72z"/><path d="M17.88 17.821c0 1.785-1.491 3.232-3.33 3.232-1.838 0-3.329-1.447-3.329-3.232 0-.248.065-.567.175-.93.394-1.291 1.373-3.158 2.137-4.514a56.486 56.486 0 0 1 1.018-1.739s.45.73 1.02 1.742c.762 1.357 1.74 3.22 2.133 4.51.111.364.176.683.176.931"/></g></svg>