<?xml version="1.0" encoding="utf-8"?>
<!-- Generator: Adobe Illustrator 21.0.2, SVG Export Plug-In . SVG Version: 6.00 Build 0)  -->
<svg version="1.1" id="Layer_1" xmlns="http://www.w3.org/2000/svg" xmlns:xlink="http://www.w3.org/1999/xlink" x="0px" y="0px"
	 viewBox="0 0 1870.9 425.2" style="enable-background:new 0 0 1870.9 425.2;" xml:space="preserve">
<style type="text/css">
	
		.st0{fill-rule:evenodd;clip-rule:evenodd;fill:#CB2E32;stroke:#FFFFFF;stroke-width:15;stroke-linejoin:bevel;stroke-miterlimit:10;}
	.st1{fill:#CB2E32;stroke:#FFFFFF;stroke-width:15;stroke-linejoin:bevel;stroke-miterlimit:10;}
</style>
<g>
	<polygon class="st0" points="311.8,60.6 314.4,61 309.3,61 	"/>
	<polygon class="st0" points="309.3,61 314.5,61.1 309.2,61.1 	"/>
	<polygon class="st0" points="309.3,61 314.4,61 314.5,61.1 	"/>
	<polygon class="st0" points="309.2,61.1 317.3,62.2 306.5,62.2 	"/>
	<polygon class="st0" points="309.2,61.1 314.5,61.1 317.3,62.2 	"/>
	<polygon class="st0" points="306.5,62.2 317.3,62.2 306.4,62.2 	"/>
	<polygon class="st0" points="306.5,62.2 317.3,62.2 317.3,62.2 	"/>
	<polygon class="st0" points="306.4,62.2 320.4,64.2 303.5,64.2 	"/>
	<polygon class="st0" points="306.4,62.2 317.3,62.2 320.4,64.2 	"/>
	<polygon class="st0" points="303.5,64.2 320.5,64.3 303.4,64.3 	"/>
	<polygon class="st0" points="303.5,64.2 320.4,64.2 320.5,64.3 	"/>
	<polygon class="st0" points="303.4,64.3 323.7,66.9 300.2,66.9 	"/>
	<polygon class="st0" points="303.4,64.3 320.5,64.3 323.7,66.9 	"/>
	<polygon class="st0" points="300.2,66.9 323.8,67 300.2,67 	"/>
	<polygon class="st0" points="300.2,66.9 323.7,66.9 323.8,67 	"/>
	<polygon class="st0" points="300.2,67 330.8,74.3 293.3,74.3 	"/>
	<polygon class="st0" points="300.2,67 323.8,67 330.8,74.3 	"/>
	<polygon class="st0" points="293.3,74.3 330.9,74.4 293.2,74.4 	"/>
	<polygon class="st0" points="293.3,74.3 330.8,74.3 330.9,74.4 	"/>
	<polygon class="st0" points="293.2,74.4 338.3,84 285.8,84 	"/>
	<polygon class="st0" points="293.2,74.4 330.9,74.4 338.3,84 	"/>
	<polygon class="st0" points="285.8,84 338.5,84.1 285.7,84.1 	"/>
	<polygon class="st0" points="285.8,84 338.3,84 338.5,84.1 	"/>
	<polygon class="st0" points="285.7,84.1 346.2,95.6 278,95.6 	"/>
	<polygon class="st0" points="285.7,84.1 338.5,84.1 346.2,95.6 	"/>
	<polygon class="st0" points="278,95.6 346.4,95.9 277.8,95.9 	"/>
	<polygon class="st0" points="278,95.6 346.2,95.6 346.4,95.9 	"/>
	<polygon class="st0" points="277.8,95.9 354.4,108.7 269.9,108.7 	"/>
	<polygon class="st0" points="277.8,95.9 346.4,95.9 354.4,108.7 	"/>
	<polygon class="st0" points="269.9,108.7 354.5,109.1 269.7,109.1 	"/>
	<polygon class="st0" points="269.9,108.7 354.4,108.7 354.5,109.1 	"/>
	<polygon class="st0" points="269.7,109.1 362.4,123.2 261.8,123.2 	"/>
	<polygon class="st0" points="269.7,109.1 354.5,109.1 362.4,123.2 	"/>
	<polygon class="st0" points="261.8,123.2 362.7,123.6 261.6,123.6 	"/>
	<polygon class="st0" points="261.8,123.2 362.4,123.2 362.7,123.6 	"/>
	<polygon class="st0" points="261.6,123.6 370.4,138.4 253.9,138.4 	"/>
	<polygon class="st0" points="261.6,123.6 362.7,123.6 370.4,138.4 	"/>
	<polygon class="st0" points="253.9,138.4 370.6,139 253.6,139 	"/>
	<polygon class="st0" points="253.9,138.4 370.4,138.4 370.6,139 	"/>
	<polygon class="st0" points="253.6,139 385.2,170.1 239,170.1 	"/>
	<polygon class="st0" points="253.6,139 370.6,139 385.2,170.1 	"/>
	<polygon class="st0" points="239,170.1 385.5,170.7 238.7,170.7 	"/>
	<polygon class="st0" points="239,170.1 385.2,170.1 385.5,170.7 	"/>
	<polygon class="st0" points="238.7,170.7 391.7,185.8 232.4,185.8 	"/>
	<polygon class="st0" points="238.7,170.7 385.5,170.7 391.7,185.8 	"/>
	<polygon class="st0" points="232.4,185.8 392,186.4 232.1,186.4 	"/>
	<polygon class="st0" points="232.4,185.8 391.7,185.8 392,186.4 	"/>
	<polygon class="st0" points="232.1,186.4 397.4,200.8 226.6,200.8 	"/>
	<polygon class="st0" points="232.1,186.4 392,186.4 397.4,200.8 	"/>
	<polygon class="st0" points="226.6,200.8 397.6,201.4 226.3,201.4 	"/>
	<polygon class="st0" points="226.6,200.8 397.4,200.8 397.6,201.4 	"/>
	<polygon class="st0" points="226.3,201.4 402.1,214.9 221.7,214.9 	"/>
	<polygon class="st0" points="226.3,201.4 397.6,201.4 402.1,214.9 	"/>
	<polygon class="st0" points="221.7,214.9 402.3,215.5 221.6,215.5 	"/>
	<polygon class="st0" points="221.7,214.9 402.1,214.9 402.3,215.5 	"/>
	<polygon class="st0" points="221.6,215.5 405.7,227.7 218.1,227.7 	"/>
	<polygon class="st0" points="221.6,215.5 402.3,215.5 405.7,227.7 	"/>
	<polygon class="st0" points="218.1,227.7 405.8,228.1 218,228.1 	"/>
	<polygon class="st0" points="218.1,227.7 405.7,227.7 405.8,228.1 	"/>
	<polygon class="st0" points="218,228.1 408,238.8 215.7,238.8 	"/>
	<polygon class="st0" points="218,228.1 405.8,228.1 408,238.8 	"/>
	<polygon class="st0" points="215.7,238.8 408,239.1 215.7,239.1 	"/>
	<polygon class="st0" points="215.7,238.8 408,238.8 408,239.1 	"/>
	<polygon class="st0" points="215.7,239.1 408.8,247.9 214.9,247.9 	"/>
	<polygon class="st0" points="215.7,239.1 408,239.1 408.8,247.9 	"/>
	<polygon class="st0" points="214.9,247.9 408.2,257.8 215.3,257.8 	"/>
	<polygon class="st0" points="214.9,247.9 408.8,247.9 408.2,257.8 	"/>
	<polygon class="st0" points="215.3,257.8 406.8,267.4 216.8,267.4 	"/>
	<polygon class="st0" points="215.3,257.8 408.2,257.8 406.8,267.4 	"/>
	<polygon class="st0" points="216.8,267.4 404.4,276.7 219.2,276.7 	"/>
	<polygon class="st0" points="216.8,267.4 406.8,267.4 404.4,276.7 	"/>
	<polygon class="st0" points="219.2,276.7 401.1,285.7 222.5,285.7 	"/>
	<polygon class="st0" points="219.2,276.7 404.4,276.7 401.1,285.7 	"/>
	<polygon class="st0" points="222.5,285.7 397,294.1 226.6,294.1 	"/>
	<polygon class="st0" points="222.5,285.7 401.1,285.7 397,294.1 	"/>
	<polygon class="st0" points="226.6,294.1 392.2,302.1 231.4,302.1 	"/>
	<polygon class="st0" points="226.6,294.1 397,294.1 392.2,302.1 	"/>
	<polygon class="st0" points="231.4,302.1 386.6,309.6 237,309.6 	"/>
	<polygon class="st0" points="231.4,302.1 392.2,302.1 386.6,309.6 	"/>
	<polygon class="st0" points="237,309.6 380.3,316.5 243.2,316.5 	"/>
	<polygon class="st0" points="237,309.6 386.6,309.6 380.3,316.5 	"/>
	<polygon class="st0" points="243.2,316.5 373.5,322.8 250.2,322.8 	"/>
	<polygon class="st0" points="243.2,316.5 380.3,316.5 373.5,322.8 	"/>
	<polygon class="st0" points="250.2,322.8 366,328.3 257.6,328.3 	"/>
	<polygon class="st0" points="250.2,322.8 373.5,322.8 366,328.3 	"/>
	<polygon class="st0" points="257.6,328.3 358,333.2 265.6,333.2 	"/>
	<polygon class="st0" points="257.6,328.3 366,328.3 358,333.2 	"/>
	<polygon class="st0" points="265.6,333.2 349.6,337.3 274.1,337.3 	"/>
	<polygon class="st0" points="265.6,333.2 358,333.2 349.6,337.3 	"/>
	<polygon class="st0" points="274.1,337.3 340.6,340.5 283,340.5 	"/>
	<polygon class="st0" points="274.1,337.3 349.6,337.3 340.6,340.5 	"/>
	<polygon class="st0" points="283,340.5 331.3,342.9 292.2,342.9 	"/>
	<polygon class="st0" points="283,340.5 340.6,340.5 331.3,342.9 	"/>
	<polygon class="st0" points="301.9,344.4 321.7,344.4 311.8,344.9 	"/>
	<polygon class="st0" points="292.2,342.9 321.7,344.4 301.9,344.4 	"/>
	<polygon class="st0" points="292.2,342.9 331.3,342.9 321.7,344.4 	"/>
	<polygon class="st1" points="311.8,60.6 309.2,61.1 306.4,62.2 303.4,64.3 300.2,67 293.2,74.4 285.7,84.1 277.8,95.9 269.7,109.1 
		261.6,123.6 253.6,139 238.7,170.7 232.1,186.4 226.3,201.4 221.6,215.5 218,228.1 215.7,239.1 214.9,247.9 215.3,257.8 
		216.8,267.4 219.2,276.7 222.5,285.7 226.6,294.1 231.4,302.1 237,309.6 243.2,316.5 250.2,322.8 257.6,328.3 265.6,333.2 
		274.1,337.3 283,340.5 292.2,342.9 301.9,344.4 311.8,344.9 321.7,344.4 331.3,342.9 340.6,340.5 349.6,337.3 358,333.2 366,328.3 
		373.5,322.8 380.3,316.5 386.6,309.6 392.2,302.1 397,294.1 401.1,285.7 404.4,276.7 406.8,267.4 408.2,257.8 408.8,247.9 
		408,238.8 405.7,227.7 402.1,214.9 397.4,200.8 391.7,185.8 385.2,170.1 370.4,138.4 362.4,123.2 354.4,108.7 346.2,95.6 338.3,84 
		330.8,74.3 323.7,66.9 320.4,64.2 317.3,62.2 314.4,61 311.8,60.6 	"/>
</g>
<g>
	<polygon class="st0" points="935.4,60.6 938.1,61 932.9,61 	"/>
	<polygon class="st0" points="932.9,61 938.1,61.1 932.9,61.1 	"/>
	<polygon class="st0" points="932.9,61 938.1,61 938.1,61.1 	"/>
	<polygon class="st0" points="932.9,61.1 941,62.2 930.1,62.2 	"/>
	<polygon class="st0" points="932.9,61.1 938.1,61.1 941,62.2 	"/>
	<polygon class="st0" points="930.1,62.2 941,62.2 930,62.2 	"/>
	<polygon class="st0" points="930.1,62.2 941,62.2 941,62.2 	"/>
	<polygon class="st0" points="930,62.2 944.1,64.2 927.1,64.2 	"/>
	<polygon class="st0" points="930,62.2 941,62.2 944.1,64.2 	"/>
	<polygon class="st0" points="927.1,64.2 944.1,64.3 927,64.3 	"/>
	<polygon class="st0" points="927.1,64.2 944.1,64.2 944.1,64.3 	"/>
	<polygon class="st0" points="927,64.3 947.3,66.9 923.9,66.9 	"/>
	<polygon class="st0" points="927,64.3 944.1,64.3 947.3,66.9 	"/>
	<polygon class="st0" points="923.9,66.9 947.4,67 923.8,67 	"/>
	<polygon class="st0" points="923.9,66.9 947.3,66.9 947.4,67 	"/>
	<polygon class="st0" points="923.8,67 954.4,74.3 916.9,74.3 	"/>
	<polygon class="st0" points="923.8,67 947.4,67 954.4,74.3 	"/>
	<polygon class="st0" points="916.9,74.3 954.5,74.4 916.8,74.4 	"/>
	<polygon class="st0" points="916.9,74.3 954.4,74.3 954.5,74.4 	"/>
	<polygon class="st0" points="916.8,74.4 962,84 909.5,84 	"/>
	<polygon class="st0" points="916.8,74.4 954.5,74.4 962,84 	"/>
	<polygon class="st0" points="909.5,84 962.1,84.1 909.3,84.1 	"/>
	<polygon class="st0" points="909.5,84 962,84 962.1,84.1 	"/>
	<polygon class="st0" points="909.3,84.1 969.9,95.6 901.6,95.6 	"/>
	<polygon class="st0" points="909.3,84.1 962.1,84.1 969.9,95.6 	"/>
	<polygon class="st0" points="901.6,95.6 970,95.9 901.4,95.9 	"/>
	<polygon class="st0" points="901.6,95.6 969.9,95.6 970,95.9 	"/>
	<polygon class="st0" points="901.4,95.9 978,108.7 893.5,108.7 	"/>
	<polygon class="st0" points="901.4,95.9 970,95.9 978,108.7 	"/>
	<polygon class="st0" points="893.5,108.7 978.2,109.1 893.3,109.1 	"/>
	<polygon class="st0" points="893.5,108.7 978,108.7 978.2,109.1 	"/>
	<polygon class="st0" points="893.3,109.1 986.1,123.2 885.5,123.2 	"/>
	<polygon class="st0" points="893.3,109.1 978.2,109.1 986.1,123.2 	"/>
	<polygon class="st0" points="885.5,123.2 986.3,123.6 885.2,123.6 	"/>
	<polygon class="st0" points="885.5,123.2 986.1,123.2 986.3,123.6 	"/>
	<polygon class="st0" points="885.2,123.6 994,138.4 877.5,138.4 	"/>
	<polygon class="st0" points="885.2,123.6 986.3,123.6 994,138.4 	"/>
	<polygon class="st0" points="877.5,138.4 994.3,139 877.2,139 	"/>
	<polygon class="st0" points="877.5,138.4 994,138.4 994.3,139 	"/>
	<polygon class="st0" points="877.2,139 1008.8,170.1 862.6,170.1 	"/>
	<polygon class="st0" points="877.2,139 994.3,139 1008.8,170.1 	"/>
	<polygon class="st0" points="862.6,170.1 1009.1,170.7 862.3,170.7 	"/>
	<polygon class="st0" points="862.6,170.1 1008.8,170.1 1009.1,170.7 	"/>
	<polygon class="st0" points="862.3,170.7 1015.3,185.8 856,185.8 	"/>
	<polygon class="st0" points="862.3,170.7 1009.1,170.7 1015.3,185.8 	"/>
	<polygon class="st0" points="856,185.8 1015.6,186.4 855.7,186.4 	"/>
	<polygon class="st0" points="856,185.8 1015.3,185.8 1015.6,186.4 	"/>
	<polygon class="st0" points="855.7,186.4 1021,200.8 850.2,200.8 	"/>
	<polygon class="st0" points="855.7,186.4 1015.6,186.4 1021,200.8 	"/>
	<polygon class="st0" points="850.2,200.8 1021.2,201.4 850,201.4 	"/>
	<polygon class="st0" points="850.2,200.8 1021,200.8 1021.2,201.4 	"/>
	<polygon class="st0" points="850,201.4 1025.7,214.9 845.4,214.9 	"/>
	<polygon class="st0" points="850,201.4 1021.2,201.4 1025.7,214.9 	"/>
	<polygon class="st0" points="845.4,214.9 1025.9,215.5 845.2,215.5 	"/>
	<polygon class="st0" points="845.4,214.9 1025.7,214.9 1025.9,215.5 	"/>
	<polygon class="st0" points="845.2,215.5 1029.3,227.7 841.7,227.7 	"/>
	<polygon class="st0" points="845.2,215.5 1025.9,215.5 1029.3,227.7 	"/>
	<polygon class="st0" points="841.7,227.7 1029.4,228.1 841.6,228.1 	"/>
	<polygon class="st0" points="841.7,227.7 1029.3,227.7 1029.4,228.1 	"/>
	<polygon class="st0" points="841.6,228.1 1031.6,238.8 839.3,238.8 	"/>
	<polygon class="st0" points="841.6,228.1 1029.4,228.1 1031.6,238.8 	"/>
	<polygon class="st0" points="839.3,238.8 1031.6,239.1 839.3,239.1 	"/>
	<polygon class="st0" points="839.3,238.8 1031.6,238.8 1031.6,239.1 	"/>
	<polygon class="st0" points="839.3,239.1 1032.4,247.9 838.5,247.9 	"/>
	<polygon class="st0" points="839.3,239.1 1031.6,239.1 1032.4,247.9 	"/>
	<polygon class="st0" points="838.5,247.9 1031.9,257.8 839,257.8 	"/>
	<polygon class="st0" points="838.5,247.9 1032.4,247.9 1031.9,257.8 	"/>
	<polygon class="st0" points="839,257.8 1030.4,267.4 840.5,267.4 	"/>
	<polygon class="st0" points="839,257.8 1031.9,257.8 1030.4,267.4 	"/>
	<polygon class="st0" points="840.5,267.4 1028,276.7 842.9,276.7 	"/>
	<polygon class="st0" points="840.5,267.4 1030.4,267.4 1028,276.7 	"/>
	<polygon class="st0" points="842.9,276.7 1024.8,285.7 846.1,285.7 	"/>
	<polygon class="st0" points="842.9,276.7 1028,276.7 1024.8,285.7 	"/>
	<polygon class="st0" points="846.1,285.7 1020.6,294.1 850.2,294.1 	"/>
	<polygon class="st0" points="846.1,285.7 1024.8,285.7 1020.6,294.1 	"/>
	<polygon class="st0" points="850.2,294.1 1015.8,302.1 855,302.1 	"/>
	<polygon class="st0" points="850.2,294.1 1020.6,294.1 1015.8,302.1 	"/>
	<polygon class="st0" points="855,302.1 1010.2,309.6 860.6,309.6 	"/>
	<polygon class="st0" points="855,302.1 1015.8,302.1 1010.2,309.6 	"/>
	<polygon class="st0" points="860.6,309.6 1004,316.5 866.9,316.5 	"/>
	<polygon class="st0" points="860.6,309.6 1010.2,309.6 1004,316.5 	"/>
	<polygon class="st0" points="866.9,316.5 997.1,322.8 873.8,322.8 	"/>
	<polygon class="st0" points="866.9,316.5 1004,316.5 997.1,322.8 	"/>
	<polygon class="st0" points="873.8,322.8 989.6,328.3 881.2,328.3 	"/>
	<polygon class="st0" points="873.8,322.8 997.1,322.8 989.6,328.3 	"/>
	<polygon class="st0" points="881.2,328.3 981.6,333.2 889.2,333.2 	"/>
	<polygon class="st0" points="881.2,328.3 989.6,328.3 981.6,333.2 	"/>
	<polygon class="st0" points="889.2,333.2 973.2,337.3 897.7,337.3 	"/>
	<polygon class="st0" points="889.2,333.2 981.6,333.2 973.2,337.3 	"/>
	<polygon class="st0" points="897.7,337.3 964.3,340.5 906.6,340.5 	"/>
	<polygon class="st0" points="897.7,337.3 973.2,337.3 964.3,340.5 	"/>
	<polygon class="st0" points="906.6,340.5 955,342.9 915.9,342.9 	"/>
	<polygon class="st0" points="906.6,340.5 964.3,340.5 955,342.9 	"/>
	<polygon class="st0" points="925.5,344.4 945.3,344.4 935.4,344.9 	"/>
	<polygon class="st0" points="915.9,342.9 945.3,344.4 925.5,344.4 	"/>
	<polygon class="st0" points="915.9,342.9 955,342.9 945.3,344.4 	"/>
	<polygon class="st1" points="935.4,60.6 932.9,61.1 930,62.2 927,64.3 923.8,67 916.8,74.4 909.3,84.1 901.4,95.9 893.3,109.1 
		885.2,123.6 877.2,139 862.3,170.7 855.7,186.4 850,201.4 845.2,215.5 841.6,228.1 839.3,239.1 838.5,247.9 839,257.8 840.5,267.4 
		842.9,276.7 846.1,285.7 850.2,294.1 855,302.1 860.6,309.6 866.9,316.5 873.8,322.8 881.2,328.3 889.2,333.2 897.7,337.3 
		906.6,340.5 915.9,342.9 925.5,344.4 935.4,344.9 945.3,344.4 955,342.9 964.3,340.5 973.2,337.3 981.6,333.2 989.6,328.3 
		997.1,322.8 1004,316.5 1010.2,309.6 1015.8,302.1 1020.6,294.1 1024.8,285.7 1028,276.7 1030.4,267.4 1031.9,257.8 1032.4,247.9 
		1031.6,238.8 1029.3,227.7 1025.7,214.9 1021,200.8 1015.3,185.8 1008.8,170.1 994,138.4 986.1,123.2 978,108.7 969.9,95.6 962,84 
		954.4,74.3 947.3,66.9 944.1,64.2 941,62.2 938.1,61 935.4,60.6 	"/>
	<polygon class="st0" points="1080.8,75.7 1082.5,75.9 1078.2,75.9 	"/>
	<polygon class="st0" points="1078.2,75.9 1083.4,76 1077.9,76 	"/>
	<polygon class="st0" points="1078.2,75.9 1082.5,75.9 1083.4,76 	"/>
	<polygon class="st0" points="1077.9,76 1085.3,76.5 1075.7,76.5 	"/>
	<polygon class="st0" points="1077.9,76 1083.4,76 1085.3,76.5 	"/>
	<polygon class="st0" points="1075.7,76.5 1085.9,76.7 1075.3,76.7 	"/>
	<polygon class="st0" points="1075.7,76.5 1085.3,76.5 1085.9,76.7 	"/>
	<polygon class="st0" points="1075.3,76.7 1087.7,77.6 1073.4,77.6 	"/>
	<polygon class="st0" points="1075.3,76.7 1085.9,76.7 1087.7,77.6 	"/>
	<polygon class="st0" points="1073.4,77.6 1088.2,77.9 1073,77.9 	"/>
	<polygon class="st0" points="1073.4,77.6 1087.7,77.6 1088.2,77.9 	"/>
	<polygon class="st0" points="1073,77.9 1089.8,79.1 1071.3,79.1 	"/>
	<polygon class="st0" points="1073,77.9 1088.2,77.9 1089.8,79.1 	"/>
	<polygon class="st0" points="1071.3,79.1 1090.3,79.5 1070.9,79.5 	"/>
	<polygon class="st0" points="1071.3,79.1 1089.8,79.1 1090.3,79.5 	"/>
	<polygon class="st0" points="1070.9,79.5 1091.9,81.4 1068.6,81.4 	"/>
	<polygon class="st0" points="1070.9,79.5 1090.3,79.5 1091.9,81.4 	"/>
	<polygon class="st0" points="1068.6,81.4 1092,81.4 1068.6,81.4 	"/>
	<polygon class="st0" points="1068.6,81.4 1091.9,81.4 1092,81.4 	"/>
	<polygon class="st0" points="1068.6,81.4 1093.3,83.3 1066.8,83.3 	"/>
	<polygon class="st0" points="1068.6,81.4 1092,81.4 1093.3,83.3 	"/>
	<polygon class="st0" points="1066.8,83.3 1094.7,85.5 1065.3,85.5 	"/>
	<polygon class="st0" points="1066.8,83.3 1093.3,83.3 1094.7,85.5 	"/>
	<polygon class="st0" points="1065.3,85.5 1096.4,88 1064.3,88 	"/>
	<polygon class="st0" points="1065.3,85.5 1094.7,85.5 1096.4,88 	"/>
	<polygon class="st0" points="1064.3,88 1098.1,90.7 1063.8,90.7 	"/>
	<polygon class="st0" points="1064.3,88 1096.4,88 1098.1,90.7 	"/>
	<polygon class="st0" points="1063.8,90.7 1099.8,93.3 1063.8,93.3 	"/>
	<polygon class="st0" points="1063.8,90.7 1098.1,90.7 1099.8,93.3 	"/>
	<polygon class="st0" points="1063.8,93.3 1101.6,96 1064.2,96 	"/>
	<polygon class="st0" points="1063.8,93.3 1099.8,93.3 1101.6,96 	"/>
	<polygon class="st0" points="1064.2,96 1103.2,98.5 1065.1,98.5 	"/>
	<polygon class="st0" points="1064.2,96 1101.6,96 1103.2,98.5 	"/>
	<polygon class="st0" points="1065.1,98.5 1104.7,100.8 1066.5,100.8 	"/>
	<polygon class="st0" points="1065.1,98.5 1103.2,98.5 1104.7,100.8 	"/>
	<polygon class="st0" points="1066.5,100.8 1106.1,102.8 1067.9,102.8 	"/>
	<polygon class="st0" points="1066.5,100.8 1104.7,100.8 1106.1,102.8 	"/>
	<polygon class="st0" points="1067.9,102.8 1114.2,118.9 1078.5,118.9 	"/>
	<polygon class="st0" points="1067.9,102.8 1106.1,102.8 1114.2,118.9 	"/>
	<polygon class="st0" points="1078.5,118.9 1117.5,125.6 1081.8,125.6 	"/>
	<polygon class="st0" points="1078.5,118.9 1114.2,118.9 1117.5,125.6 	"/>
	<polygon class="st0" points="1081.8,125.6 1122.2,138.4 1088.2,138.4 	"/>
	<polygon class="st0" points="1081.8,125.6 1117.5,125.6 1122.2,138.4 	"/>
	<polygon class="st0" points="1088.2,138.4 1126.3,149.6 1092.3,149.6 	"/>
	<polygon class="st0" points="1088.2,138.4 1122.2,138.4 1126.3,149.6 	"/>
	<polygon class="st0" points="1092.3,149.6 1128.5,158.9 1095.7,158.9 	"/>
	<polygon class="st0" points="1092.3,149.6 1126.3,149.6 1128.5,158.9 	"/>
	<polygon class="st0" points="1095.7,158.9 1132.2,174.4 1099.4,174.4 	"/>
	<polygon class="st0" points="1095.7,158.9 1128.5,158.9 1132.2,174.4 	"/>
	<polygon class="st0" points="1099.4,174.4 1132.8,180.1 1100.7,180.1 	"/>
	<polygon class="st0" points="1099.4,174.4 1132.2,174.4 1132.8,180.1 	"/>
	<polygon class="st0" points="1100.7,180.1 1135.1,199.8 1103,199.8 	"/>
	<polygon class="st0" points="1100.7,180.1 1132.8,180.1 1135.1,199.8 	"/>
	<polygon class="st0" points="1103,199.8 1135.1,201.7 1103.2,201.7 	"/>
	<polygon class="st0" points="1103,199.8 1135.1,199.8 1135.1,201.7 	"/>
	<polygon class="st0" points="1103.2,201.7 1135.1,223.5 1103.2,223.5 	"/>
	<polygon class="st0" points="1103.2,201.7 1135.1,201.7 1135.1,223.5 	"/>
	<polygon class="st0" points="1103.2,223.5 1135.1,225.3 1103,225.3 	"/>
	<polygon class="st0" points="1103.2,223.5 1135.1,223.5 1135.1,225.3 	"/>
	<polygon class="st0" points="1103,225.3 1132.8,245.1 1100.7,245.1 	"/>
	<polygon class="st0" points="1103,225.3 1135.1,225.3 1132.8,245.1 	"/>
	<polygon class="st0" points="1100.7,245.1 1132.2,250.7 1099.4,250.7 	"/>
	<polygon class="st0" points="1100.7,245.1 1132.8,245.1 1132.2,250.7 	"/>
	<polygon class="st0" points="1099.4,250.7 1128.5,266.3 1095.7,266.3 	"/>
	<polygon class="st0" points="1099.4,250.7 1132.2,250.7 1128.5,266.3 	"/>
	<polygon class="st0" points="1095.7,266.3 1126.3,275.6 1092.3,275.6 	"/>
	<polygon class="st0" points="1095.7,266.3 1128.5,266.3 1126.3,275.6 	"/>
	<polygon class="st0" points="1092.3,275.6 1122.2,286.8 1088.2,286.8 	"/>
	<polygon class="st0" points="1092.3,275.6 1126.3,275.6 1122.2,286.8 	"/>
	<polygon class="st0" points="1088.2,286.8 1117.5,299.6 1081.8,299.6 	"/>
	<polygon class="st0" points="1088.2,286.8 1122.2,286.8 1117.5,299.6 	"/>
	<polygon class="st0" points="1081.8,299.6 1114.2,306.2 1078.5,306.2 	"/>
	<polygon class="st0" points="1081.8,299.6 1117.5,299.6 1114.2,306.2 	"/>
	<polygon class="st0" points="1078.5,306.2 1106.1,322.4 1067.9,322.4 	"/>
	<polygon class="st0" points="1078.5,306.2 1114.2,306.2 1106.1,322.4 	"/>
	<polygon class="st0" points="1067.9,322.4 1104.7,324.4 1066.5,324.4 	"/>
	<polygon class="st0" points="1067.9,322.4 1106.1,322.4 1104.7,324.4 	"/>
	<polygon class="st0" points="1066.5,324.4 1103.2,326.7 1065.1,326.7 	"/>
	<polygon class="st0" points="1066.5,324.4 1104.7,324.4 1103.2,326.7 	"/>
	<polygon class="st0" points="1065.1,326.7 1101.6,329.2 1064.2,329.2 	"/>
	<polygon class="st0" points="1065.1,326.7 1103.2,326.7 1101.6,329.2 	"/>
	<polygon class="st0" points="1064.2,329.2 1099.8,331.8 1063.8,331.8 	"/>
	<polygon class="st0" points="1064.2,329.2 1101.6,329.2 1099.8,331.8 	"/>
	<polygon class="st0" points="1063.8,331.8 1098.1,334.5 1063.8,334.5 	"/>
	<polygon class="st0" points="1063.8,331.8 1099.8,331.8 1098.1,334.5 	"/>
	<polygon class="st0" points="1063.8,334.5 1096.4,337.1 1064.3,337.1 	"/>
	<polygon class="st0" points="1063.8,334.5 1098.1,334.5 1096.4,337.1 	"/>
	<polygon class="st0" points="1064.3,337.1 1094.7,339.6 1065.3,339.6 	"/>
	<polygon class="st0" points="1064.3,337.1 1096.4,337.1 1094.7,339.6 	"/>
	<polygon class="st0" points="1065.3,339.6 1093.3,341.9 1066.8,341.9 	"/>
	<polygon class="st0" points="1065.3,339.6 1094.7,339.6 1093.3,341.9 	"/>
	<polygon class="st0" points="1066.8,341.9 1092,343.7 1068.6,343.7 	"/>
	<polygon class="st0" points="1066.8,341.9 1093.3,341.9 1092,343.7 	"/>
	<polygon class="st0" points="1068.6,343.7 1091.9,343.8 1068.6,343.8 	"/>
	<polygon class="st0" points="1068.6,343.7 1092,343.7 1091.9,343.8 	"/>
	<polygon class="st0" points="1068.6,343.8 1090.3,345.7 1070.9,345.7 	"/>
	<polygon class="st0" points="1068.6,343.8 1091.9,343.8 1090.3,345.7 	"/>
	<polygon class="st0" points="1070.9,345.7 1089.8,346 1071.3,346 	"/>
	<polygon class="st0" points="1070.9,345.7 1090.3,345.7 1089.8,346 	"/>
	<polygon class="st0" points="1071.3,346 1088.2,347.2 1073,347.2 	"/>
	<polygon class="st0" points="1071.3,346 1089.8,346 1088.2,347.2 	"/>
	<polygon class="st0" points="1073,347.2 1087.7,347.6 1073.4,347.6 	"/>
	<polygon class="st0" points="1073,347.2 1088.2,347.2 1087.7,347.6 	"/>
	<polygon class="st0" points="1073.4,347.6 1085.9,348.4 1075.3,348.4 	"/>
	<polygon class="st0" points="1073.4,347.6 1087.7,347.6 1085.9,348.4 	"/>
	<polygon class="st0" points="1075.3,348.4 1085.3,348.7 1075.7,348.7 	"/>
	<polygon class="st0" points="1075.3,348.4 1085.9,348.4 1085.3,348.7 	"/>
	<polygon class="st0" points="1075.7,348.7 1083.4,349.2 1077.9,349.2 	"/>
	<polygon class="st0" points="1075.7,348.7 1085.3,348.7 1083.4,349.2 	"/>
	<polygon class="st0" points="1078.2,349.3 1082.5,349.3 1080.8,349.5 	"/>
	<polygon class="st0" points="1077.9,349.2 1082.5,349.3 1078.2,349.3 	"/>
	<polygon class="st0" points="1077.9,349.2 1083.4,349.2 1082.5,349.3 	"/>
	<polygon class="st1" points="1092,81.4 1090.3,79.5 1088.2,77.9 1085.9,76.7 1083.4,76 1080.8,75.7 1078.2,75.9 1075.7,76.5 
		1073.4,77.6 1071.3,79.1 1068.6,81.4 1066.8,83.3 1065.3,85.5 1064.3,88 1063.8,90.7 1063.8,93.3 1064.2,96 1065.1,98.5 
		1066.5,100.8 1078.5,118.9 1088.2,138.4 1095.7,158.9 1100.7,180.1 1103.2,201.7 1103.2,223.5 1100.7,245.1 1095.7,266.3 
		1088.2,286.8 1078.5,306.2 1066.5,324.4 1065.1,326.7 1064.2,329.2 1063.8,331.8 1063.8,334.5 1064.3,337.1 1065.3,339.6 
		1066.8,341.9 1068.6,343.8 1071.3,346 1073.4,347.6 1075.7,348.7 1078.2,349.3 1080.8,349.5 1083.4,349.2 1085.9,348.4 
		1088.2,347.2 1090.3,345.7 1092,343.7 1106.1,322.4 1117.5,299.6 1126.3,275.6 1132.2,250.7 1135.1,225.3 1135.1,199.8 
		1132.2,174.4 1126.3,149.6 1117.5,125.6 1106.1,102.8 1092,81.4 	"/>
	<polygon class="st0" points="790,75.7 792.6,75.9 788.3,75.9 	"/>
	<polygon class="st0" points="788.3,75.9 793,76 787.4,76 	"/>
	<polygon class="st0" points="788.3,75.9 792.6,75.9 793,76 	"/>
	<polygon class="st0" points="787.4,76 795.1,76.5 785.5,76.5 	"/>
	<polygon class="st0" points="787.4,76 793,76 795.1,76.5 	"/>
	<polygon class="st0" points="785.5,76.5 795.5,76.7 784.9,76.7 	"/>
	<polygon class="st0" points="785.5,76.5 795.1,76.5 795.5,76.7 	"/>
	<polygon class="st0" points="784.9,76.7 797.5,77.6 783.2,77.6 	"/>
	<polygon class="st0" points="784.9,76.7 795.5,76.7 797.5,77.6 	"/>
	<polygon class="st0" points="783.2,77.6 797.9,77.9 782.6,77.9 	"/>
	<polygon class="st0" points="783.2,77.6 797.5,77.6 797.9,77.9 	"/>
	<polygon class="st0" points="782.6,77.9 799.6,79.1 781,79.1 	"/>
	<polygon class="st0" points="782.6,77.9 797.9,77.9 799.6,79.1 	"/>
	<polygon class="st0" points="781,79.1 800,79.5 780.6,79.5 	"/>
	<polygon class="st0" points="781,79.1 799.6,79.1 800,79.5 	"/>
	<polygon class="st0" points="780.6,79.5 802.2,81.4 778.9,81.4 	"/>
	<polygon class="st0" points="780.6,79.5 800,79.5 802.2,81.4 	"/>
	<polygon class="st0" points="778.9,81.4 802.3,81.4 778.8,81.4 	"/>
	<polygon class="st0" points="778.9,81.4 802.2,81.4 802.3,81.4 	"/>
	<polygon class="st0" points="778.8,81.4 804,83.3 777.6,83.3 	"/>
	<polygon class="st0" points="778.8,81.4 802.3,81.4 804,83.3 	"/>
	<polygon class="st0" points="777.6,83.3 805.5,85.5 776.1,85.5 	"/>
	<polygon class="st0" points="777.6,83.3 804,83.3 805.5,85.5 	"/>
	<polygon class="st0" points="776.1,85.5 806.5,88 774.5,88 	"/>
	<polygon class="st0" points="776.1,85.5 805.5,85.5 806.5,88 	"/>
	<polygon class="st0" points="774.5,88 807.1,90.7 772.8,90.7 	"/>
	<polygon class="st0" points="774.5,88 806.5,88 807.1,90.7 	"/>
	<polygon class="st0" points="772.8,90.7 807.1,93.3 771,93.3 	"/>
	<polygon class="st0" points="772.8,90.7 807.1,90.7 807.1,93.3 	"/>
	<polygon class="st0" points="771,93.3 806.6,96 769.3,96 	"/>
	<polygon class="st0" points="771,93.3 807.1,93.3 806.6,96 	"/>
	<polygon class="st0" points="769.3,96 805.7,98.5 767.6,98.5 	"/>
	<polygon class="st0" points="769.3,96 806.6,96 805.7,98.5 	"/>
	<polygon class="st0" points="767.6,98.5 804.3,100.8 766.1,100.8 	"/>
	<polygon class="st0" points="767.6,98.5 805.7,98.5 804.3,100.8 	"/>
	<polygon class="st0" points="766.1,100.8 803,102.8 764.8,102.8 	"/>
	<polygon class="st0" points="766.1,100.8 804.3,100.8 803,102.8 	"/>
	<polygon class="st0" points="764.8,102.8 792.4,118.9 756.6,118.9 	"/>
	<polygon class="st0" points="764.8,102.8 803,102.8 792.4,118.9 	"/>
	<polygon class="st0" points="756.6,118.9 789,125.6 753.3,125.6 	"/>
	<polygon class="st0" points="756.6,118.9 792.4,118.9 789,125.6 	"/>
	<polygon class="st0" points="753.3,125.6 782.6,138.4 748.6,138.4 	"/>
	<polygon class="st0" points="753.3,125.6 789,125.6 782.6,138.4 	"/>
	<polygon class="st0" points="748.6,138.4 778.5,149.6 744.6,149.6 	"/>
	<polygon class="st0" points="748.6,138.4 782.6,138.4 778.5,149.6 	"/>
	<polygon class="st0" points="744.6,149.6 775.2,158.9 742.4,158.9 	"/>
	<polygon class="st0" points="744.6,149.6 778.5,149.6 775.2,158.9 	"/>
	<polygon class="st0" points="742.4,158.9 771.5,174.4 738.7,174.4 	"/>
	<polygon class="st0" points="742.4,158.9 775.2,158.9 771.5,174.4 	"/>
	<polygon class="st0" points="738.7,174.4 770.1,180.1 738,180.1 	"/>
	<polygon class="st0" points="738.7,174.4 771.5,174.4 770.1,180.1 	"/>
	<polygon class="st0" points="738,180.1 767.9,199.8 735.7,199.8 	"/>
	<polygon class="st0" points="738,180.1 770.1,180.1 767.9,199.8 	"/>
	<polygon class="st0" points="735.7,199.8 767.6,201.7 735.7,201.7 	"/>
	<polygon class="st0" points="735.7,199.8 767.9,199.8 767.6,201.7 	"/>
	<polygon class="st0" points="735.7,201.7 767.6,223.5 735.7,223.5 	"/>
	<polygon class="st0" points="735.7,201.7 767.6,201.7 767.6,223.5 	"/>
	<polygon class="st0" points="735.7,223.5 767.9,225.3 735.7,225.3 	"/>
	<polygon class="st0" points="735.7,223.5 767.6,223.5 767.9,225.3 	"/>
	<polygon class="st0" points="735.7,225.3 770.1,245.1 738,245.1 	"/>
	<polygon class="st0" points="735.7,225.3 767.9,225.3 770.1,245.1 	"/>
	<polygon class="st0" points="738,245.1 771.5,250.7 738.7,250.7 	"/>
	<polygon class="st0" points="738,245.1 770.1,245.1 771.5,250.7 	"/>
	<polygon class="st0" points="738.7,250.7 775.2,266.3 742.4,266.3 	"/>
	<polygon class="st0" points="738.7,250.7 771.5,250.7 775.2,266.3 	"/>
	<polygon class="st0" points="742.4,266.3 778.5,275.6 744.6,275.6 	"/>
	<polygon class="st0" points="742.4,266.3 775.2,266.3 778.5,275.6 	"/>
	<polygon class="st0" points="744.6,275.6 782.6,286.8 748.6,286.8 	"/>
	<polygon class="st0" points="744.6,275.6 778.5,275.6 782.6,286.8 	"/>
	<polygon class="st0" points="748.6,286.8 789,299.6 753.3,299.6 	"/>
	<polygon class="st0" points="748.6,286.8 782.6,286.8 789,299.6 	"/>
	<polygon class="st0" points="753.3,299.6 792.4,306.2 756.6,306.2 	"/>
	<polygon class="st0" points="753.3,299.6 789,299.6 792.4,306.2 	"/>
	<polygon class="st0" points="756.6,306.2 803,322.4 764.8,322.4 	"/>
	<polygon class="st0" points="756.6,306.2 792.4,306.2 803,322.4 	"/>
	<polygon class="st0" points="764.8,322.4 804.3,324.4 766.1,324.4 	"/>
	<polygon class="st0" points="764.8,322.4 803,322.4 804.3,324.4 	"/>
	<polygon class="st0" points="766.1,324.4 805.7,326.7 767.6,326.7 	"/>
	<polygon class="st0" points="766.1,324.4 804.3,324.4 805.7,326.7 	"/>
	<polygon class="st0" points="767.6,326.7 806.6,329.2 769.3,329.2 	"/>
	<polygon class="st0" points="767.6,326.7 805.7,326.7 806.6,329.2 	"/>
	<polygon class="st0" points="769.3,329.2 807.1,331.8 771,331.8 	"/>
	<polygon class="st0" points="769.3,329.2 806.6,329.2 807.1,331.8 	"/>
	<polygon class="st0" points="771,331.8 807.1,334.5 772.8,334.5 	"/>
	<polygon class="st0" points="771,331.8 807.1,331.8 807.1,334.5 	"/>
	<polygon class="st0" points="772.8,334.5 806.5,337.1 774.5,337.1 	"/>
	<polygon class="st0" points="772.8,334.5 807.1,334.5 806.5,337.1 	"/>
	<polygon class="st0" points="774.5,337.1 805.5,339.6 776.1,339.6 	"/>
	<polygon class="st0" points="774.5,337.1 806.5,337.1 805.5,339.6 	"/>
	<polygon class="st0" points="776.1,339.6 804,341.9 777.6,341.9 	"/>
	<polygon class="st0" points="776.1,339.6 805.5,339.6 804,341.9 	"/>
	<polygon class="st0" points="777.6,341.9 802.3,343.7 778.8,343.7 	"/>
	<polygon class="st0" points="777.6,341.9 804,341.9 802.3,343.7 	"/>
	<polygon class="st0" points="778.8,343.7 802.2,343.8 778.9,343.8 	"/>
	<polygon class="st0" points="778.8,343.7 802.3,343.7 802.2,343.8 	"/>
	<polygon class="st0" points="778.9,343.8 800,345.7 780.6,345.7 	"/>
	<polygon class="st0" points="778.9,343.8 802.2,343.8 800,345.7 	"/>
	<polygon class="st0" points="780.6,345.7 799.6,346 781,346 	"/>
	<polygon class="st0" points="780.6,345.7 800,345.7 799.6,346 	"/>
	<polygon class="st0" points="781,346 797.9,347.2 782.6,347.2 	"/>
	<polygon class="st0" points="781,346 799.6,346 797.9,347.2 	"/>
	<polygon class="st0" points="782.6,347.2 797.5,347.6 783.2,347.6 	"/>
	<polygon class="st0" points="782.6,347.2 797.9,347.2 797.5,347.6 	"/>
	<polygon class="st0" points="783.2,347.6 795.5,348.4 784.9,348.4 	"/>
	<polygon class="st0" points="783.2,347.6 797.5,347.6 795.5,348.4 	"/>
	<polygon class="st0" points="784.9,348.4 795.1,348.7 785.5,348.7 	"/>
	<polygon class="st0" points="784.9,348.4 795.5,348.4 795.1,348.7 	"/>
	<polygon class="st0" points="785.5,348.7 793,349.2 787.4,349.2 	"/>
	<polygon class="st0" points="785.5,348.7 795.1,348.7 793,349.2 	"/>
	<polygon class="st0" points="788.3,349.3 792.6,349.3 790,349.5 	"/>
	<polygon class="st0" points="787.4,349.2 792.6,349.3 788.3,349.3 	"/>
	<polygon class="st0" points="787.4,349.2 793,349.2 792.6,349.3 	"/>
	<polygon class="st1" points="804.3,100.8 805.7,98.5 806.6,96 807.1,93.3 807.1,90.7 806.5,88 805.5,85.5 804,83.3 802.2,81.4 
		799.6,79.1 797.5,77.6 795.1,76.5 792.6,75.9 790,75.7 787.4,76 784.9,76.7 782.6,77.9 780.6,79.5 778.8,81.4 764.8,102.8 
		753.3,125.6 744.6,149.6 738.7,174.4 735.7,199.8 735.7,225.3 738.7,250.7 744.6,275.6 753.3,299.6 764.8,322.4 778.8,343.7 
		780.6,345.7 782.6,347.2 784.9,348.4 787.4,349.2 790,349.5 792.6,349.3 795.1,348.7 797.5,347.6 799.6,346 802.2,343.8 804,341.9 
		805.5,339.6 806.5,337.1 807.1,334.5 807.1,331.8 806.6,329.2 805.7,326.7 804.3,324.4 792.4,306.2 782.6,286.8 775.2,266.3 
		770.1,245.1 767.6,223.5 767.6,201.7 770.1,180.1 775.2,158.9 782.6,138.4 792.4,118.9 804.3,100.8 	"/>
</g>
<g>
	<polygon class="st0" points="1559,60.6 1561.7,61 1556.5,61 	"/>
	<polygon class="st0" points="1556.5,61 1561.7,61.1 1556.5,61.1 	"/>
	<polygon class="st0" points="1556.5,61 1561.7,61 1561.7,61.1 	"/>
	<polygon class="st0" points="1556.5,61.1 1564.6,62.2 1553.7,62.2 	"/>
	<polygon class="st0" points="1556.5,61.1 1561.7,61.1 1564.6,62.2 	"/>
	<polygon class="st0" points="1553.7,62.2 1564.6,62.2 1553.7,62.2 	"/>
	<polygon class="st0" points="1553.7,62.2 1564.6,62.2 1564.6,62.2 	"/>
	<polygon class="st0" points="1553.7,62.2 1567.7,64.2 1550.7,64.2 	"/>
	<polygon class="st0" points="1553.7,62.2 1564.6,62.2 1567.7,64.2 	"/>
	<polygon class="st0" points="1550.7,64.2 1567.7,64.3 1550.7,64.3 	"/>
	<polygon class="st0" points="1550.7,64.2 1567.7,64.2 1567.7,64.3 	"/>
	<polygon class="st0" points="1550.7,64.3 1570.9,66.9 1547.5,66.9 	"/>
	<polygon class="st0" points="1550.7,64.3 1567.7,64.3 1570.9,66.9 	"/>
	<polygon class="st0" points="1547.5,66.9 1571,67 1547.4,67 	"/>
	<polygon class="st0" points="1547.5,66.9 1570.9,66.9 1571,67 	"/>
	<polygon class="st0" points="1547.4,67 1578,74.3 1540.5,74.3 	"/>
	<polygon class="st0" points="1547.4,67 1571,67 1578,74.3 	"/>
	<polygon class="st0" points="1540.5,74.3 1578.1,74.4 1540.5,74.4 	"/>
	<polygon class="st0" points="1540.5,74.3 1578,74.3 1578.1,74.4 	"/>
	<polygon class="st0" points="1540.5,74.4 1585.6,84 1533.1,84 	"/>
	<polygon class="st0" points="1540.5,74.4 1578.1,74.4 1585.6,84 	"/>
	<polygon class="st0" points="1533.1,84 1585.7,84.1 1532.9,84.1 	"/>
	<polygon class="st0" points="1533.1,84 1585.6,84 1585.7,84.1 	"/>
	<polygon class="st0" points="1532.9,84.1 1593.5,95.6 1525.2,95.6 	"/>
	<polygon class="st0" points="1532.9,84.1 1585.7,84.1 1593.5,95.6 	"/>
	<polygon class="st0" points="1525.2,95.6 1593.7,95.9 1525.1,95.9 	"/>
	<polygon class="st0" points="1525.2,95.6 1593.5,95.6 1593.7,95.9 	"/>
	<polygon class="st0" points="1525.1,95.9 1601.6,108.7 1517.2,108.7 	"/>
	<polygon class="st0" points="1525.1,95.9 1593.7,95.9 1601.6,108.7 	"/>
	<polygon class="st0" points="1517.2,108.7 1601.8,109.1 1516.9,109.1 	"/>
	<polygon class="st0" points="1517.2,108.7 1601.6,108.7 1601.8,109.1 	"/>
	<polygon class="st0" points="1516.9,109.1 1609.7,123.2 1509.1,123.2 	"/>
	<polygon class="st0" points="1516.9,109.1 1601.8,109.1 1609.7,123.2 	"/>
	<polygon class="st0" points="1509.1,123.2 1609.9,123.6 1508.8,123.6 	"/>
	<polygon class="st0" points="1509.1,123.2 1609.7,123.2 1609.9,123.6 	"/>
	<polygon class="st0" points="1508.8,123.6 1617.6,138.4 1501.1,138.4 	"/>
	<polygon class="st0" points="1508.8,123.6 1609.9,123.6 1617.6,138.4 	"/>
	<polygon class="st0" points="1501.1,138.4 1617.9,139 1500.8,139 	"/>
	<polygon class="st0" points="1501.1,138.4 1617.6,138.4 1617.9,139 	"/>
	<polygon class="st0" points="1500.8,139 1632.4,170.1 1486.2,170.1 	"/>
	<polygon class="st0" points="1500.8,139 1617.9,139 1632.4,170.1 	"/>
	<polygon class="st0" points="1486.2,170.1 1632.7,170.7 1485.9,170.7 	"/>
	<polygon class="st0" points="1486.2,170.1 1632.4,170.1 1632.7,170.7 	"/>
	<polygon class="st0" points="1485.9,170.7 1638.9,185.8 1479.6,185.8 	"/>
	<polygon class="st0" points="1485.9,170.7 1632.7,170.7 1638.9,185.8 	"/>
	<polygon class="st0" points="1479.6,185.8 1639.2,186.4 1479.4,186.4 	"/>
	<polygon class="st0" points="1479.6,185.8 1638.9,185.8 1639.2,186.4 	"/>
	<polygon class="st0" points="1479.4,186.4 1644.6,200.8 1473.8,200.8 	"/>
	<polygon class="st0" points="1479.4,186.4 1639.2,186.4 1644.6,200.8 	"/>
	<polygon class="st0" points="1473.8,200.8 1644.8,201.4 1473.6,201.4 	"/>
	<polygon class="st0" points="1473.8,200.8 1644.6,200.8 1644.8,201.4 	"/>
	<polygon class="st0" points="1473.6,201.4 1649.3,214.9 1469,214.9 	"/>
	<polygon class="st0" points="1473.6,201.4 1644.8,201.4 1649.3,214.9 	"/>
	<polygon class="st0" points="1469,214.9 1649.5,215.5 1468.8,215.5 	"/>
	<polygon class="st0" points="1469,214.9 1649.3,214.9 1649.5,215.5 	"/>
	<polygon class="st0" points="1468.8,215.5 1652.9,227.7 1465.3,227.7 	"/>
	<polygon class="st0" points="1468.8,215.5 1649.5,215.5 1652.9,227.7 	"/>
	<polygon class="st0" points="1465.3,227.7 1653,228.1 1465.2,228.1 	"/>
	<polygon class="st0" points="1465.3,227.7 1652.9,227.7 1653,228.1 	"/>
	<polygon class="st0" points="1465.2,228.1 1655.2,238.8 1462.9,238.8 	"/>
	<polygon class="st0" points="1465.2,228.1 1653,228.1 1655.2,238.8 	"/>
	<polygon class="st0" points="1462.9,238.8 1655.2,239.1 1462.9,239.1 	"/>
	<polygon class="st0" points="1462.9,238.8 1655.2,238.8 1655.2,239.1 	"/>
	<polygon class="st0" points="1462.9,239.1 1656,247.9 1462.1,247.9 	"/>
	<polygon class="st0" points="1462.9,239.1 1655.2,239.1 1656,247.9 	"/>
	<polygon class="st0" points="1462.1,247.9 1655.5,257.8 1462.6,257.8 	"/>
	<polygon class="st0" points="1462.1,247.9 1656,247.9 1655.5,257.8 	"/>
	<polygon class="st0" points="1462.6,257.8 1654,267.4 1464.1,267.4 	"/>
	<polygon class="st0" points="1462.6,257.8 1655.5,257.8 1654,267.4 	"/>
	<polygon class="st0" points="1464.1,267.4 1651.6,276.7 1466.5,276.7 	"/>
	<polygon class="st0" points="1464.1,267.4 1654,267.4 1651.6,276.7 	"/>
	<polygon class="st0" points="1466.5,276.7 1648.4,285.7 1469.7,285.7 	"/>
	<polygon class="st0" points="1466.5,276.7 1651.6,276.7 1648.4,285.7 	"/>
	<polygon class="st0" points="1469.7,285.7 1644.3,294.1 1473.8,294.1 	"/>
	<polygon class="st0" points="1469.7,285.7 1648.4,285.7 1644.3,294.1 	"/>
	<polygon class="st0" points="1473.8,294.1 1639.4,302.1 1478.7,302.1 	"/>
	<polygon class="st0" points="1473.8,294.1 1644.3,294.1 1639.4,302.1 	"/>
	<polygon class="st0" points="1478.7,302.1 1633.9,309.6 1484.3,309.6 	"/>
	<polygon class="st0" points="1478.7,302.1 1639.4,302.1 1633.9,309.6 	"/>
	<polygon class="st0" points="1484.3,309.6 1627.6,316.5 1490.5,316.5 	"/>
	<polygon class="st0" points="1484.3,309.6 1633.9,309.6 1627.6,316.5 	"/>
	<polygon class="st0" points="1490.5,316.5 1620.7,322.8 1497.4,322.8 	"/>
	<polygon class="st0" points="1490.5,316.5 1627.6,316.5 1620.7,322.8 	"/>
	<polygon class="st0" points="1497.4,322.8 1613.3,328.3 1504.9,328.3 	"/>
	<polygon class="st0" points="1497.4,322.8 1620.7,322.8 1613.3,328.3 	"/>
	<polygon class="st0" points="1504.9,328.3 1605.3,333.2 1512.8,333.2 	"/>
	<polygon class="st0" points="1504.9,328.3 1613.3,328.3 1605.3,333.2 	"/>
	<polygon class="st0" points="1512.8,333.2 1596.8,337.3 1521.3,337.3 	"/>
	<polygon class="st0" points="1512.8,333.2 1605.3,333.2 1596.8,337.3 	"/>
	<polygon class="st0" points="1521.3,337.3 1587.9,340.5 1530.2,340.5 	"/>
	<polygon class="st0" points="1521.3,337.3 1596.8,337.3 1587.9,340.5 	"/>
	<polygon class="st0" points="1530.2,340.5 1578.6,342.9 1539.5,342.9 	"/>
	<polygon class="st0" points="1530.2,340.5 1587.9,340.5 1578.6,342.9 	"/>
	<polygon class="st0" points="1549.2,344.4 1569,344.4 1559,344.9 	"/>
	<polygon class="st0" points="1539.5,342.9 1569,344.4 1549.2,344.4 	"/>
	<polygon class="st0" points="1539.5,342.9 1578.6,342.9 1569,344.4 	"/>
	<polygon class="st1" points="1559,60.6 1556.5,61.1 1553.7,62.2 1550.7,64.3 1547.4,67 1540.5,74.4 1532.9,84.1 1525.1,95.9 
		1516.9,109.1 1508.8,123.6 1500.8,139 1485.9,170.7 1479.4,186.4 1473.6,201.4 1468.8,215.5 1465.2,228.1 1462.9,239.1 
		1462.1,247.9 1462.6,257.8 1464.1,267.4 1466.5,276.7 1469.7,285.7 1473.8,294.1 1478.7,302.1 1484.3,309.6 1490.5,316.5 
		1497.4,322.8 1504.9,328.3 1512.8,333.2 1521.3,337.3 1530.2,340.5 1539.5,342.9 1549.2,344.4 1559,344.9 1569,344.4 1578.6,342.9 
		1587.9,340.5 1596.8,337.3 1605.3,333.2 1613.3,328.3 1620.7,322.8 1627.6,316.5 1633.9,309.6 1639.4,302.1 1644.3,294.1 
		1648.4,285.7 1651.6,276.7 1654,267.4 1655.5,257.8 1656,247.9 1655.2,238.8 1652.9,227.7 1649.3,214.9 1644.6,200.8 1638.9,185.8 
		1632.4,170.1 1617.6,138.4 1609.7,123.2 1601.6,108.7 1593.5,95.6 1585.6,84 1578,74.3 1570.9,66.9 1567.7,64.2 1564.6,62.2 
		1561.7,61 1559,60.6 	"/>
	<polygon class="st0" points="1704.4,75.7 1706.2,75.9 1701.8,75.9 	"/>
	<polygon class="st0" points="1701.8,75.9 1707,76 1701.5,76 	"/>
	<polygon class="st0" points="1701.8,75.9 1706.2,75.9 1707,76 	"/>
	<polygon class="st0" points="1701.5,76 1708.9,76.5 1699.3,76.5 	"/>
	<polygon class="st0" points="1701.5,76 1707,76 1708.9,76.5 	"/>
	<polygon class="st0" points="1699.3,76.5 1709.5,76.7 1698.9,76.7 	"/>
	<polygon class="st0" points="1699.3,76.5 1708.9,76.5 1709.5,76.7 	"/>
	<polygon class="st0" points="1698.9,76.7 1711.3,77.6 1697,77.6 	"/>
	<polygon class="st0" points="1698.9,76.7 1709.5,76.7 1711.3,77.6 	"/>
	<polygon class="st0" points="1697,77.6 1711.9,77.9 1696.6,77.9 	"/>
	<polygon class="st0" points="1697,77.6 1711.3,77.6 1711.9,77.9 	"/>
	<polygon class="st0" points="1696.6,77.9 1713.4,79.1 1694.9,79.1 	"/>
	<polygon class="st0" points="1696.6,77.9 1711.9,77.9 1713.4,79.1 	"/>
	<polygon class="st0" points="1694.9,79.1 1713.9,79.5 1694.5,79.5 	"/>
	<polygon class="st0" points="1694.9,79.1 1713.4,79.1 1713.9,79.5 	"/>
	<polygon class="st0" points="1694.5,79.5 1715.6,81.4 1692.3,81.4 	"/>
	<polygon class="st0" points="1694.5,79.5 1713.9,79.5 1715.6,81.4 	"/>
	<polygon class="st0" points="1692.3,81.4 1715.7,81.4 1692.2,81.4 	"/>
	<polygon class="st0" points="1692.3,81.4 1715.6,81.4 1715.7,81.4 	"/>
	<polygon class="st0" points="1692.2,81.4 1716.9,83.3 1690.4,83.3 	"/>
	<polygon class="st0" points="1692.2,81.4 1715.7,81.4 1716.9,83.3 	"/>
	<polygon class="st0" points="1690.4,83.3 1718.3,85.5 1689,85.5 	"/>
	<polygon class="st0" points="1690.4,83.3 1716.9,83.3 1718.3,85.5 	"/>
	<polygon class="st0" points="1689,85.5 1720,88 1687.9,88 	"/>
	<polygon class="st0" points="1689,85.5 1718.3,85.5 1720,88 	"/>
	<polygon class="st0" points="1687.9,88 1721.7,90.7 1687.4,90.7 	"/>
	<polygon class="st0" points="1687.9,88 1720,88 1721.7,90.7 	"/>
	<polygon class="st0" points="1687.4,90.7 1723.5,93.3 1687.4,93.3 	"/>
	<polygon class="st0" points="1687.4,90.7 1721.7,90.7 1723.5,93.3 	"/>
	<polygon class="st0" points="1687.4,93.3 1725.2,96 1687.8,96 	"/>
	<polygon class="st0" points="1687.4,93.3 1723.5,93.3 1725.2,96 	"/>
	<polygon class="st0" points="1687.8,96 1726.9,98.5 1688.7,98.5 	"/>
	<polygon class="st0" points="1687.8,96 1725.2,96 1726.9,98.5 	"/>
	<polygon class="st0" points="1688.7,98.5 1728.4,100.8 1690.2,100.8 	"/>
	<polygon class="st0" points="1688.7,98.5 1726.9,98.5 1728.4,100.8 	"/>
	<polygon class="st0" points="1690.2,100.8 1729.7,102.8 1691.5,102.8 	"/>
	<polygon class="st0" points="1690.2,100.8 1728.4,100.8 1729.7,102.8 	"/>
	<polygon class="st0" points="1691.5,102.8 1737.8,118.9 1702.1,118.9 	"/>
	<polygon class="st0" points="1691.5,102.8 1729.7,102.8 1737.8,118.9 	"/>
	<polygon class="st0" points="1702.1,118.9 1741.2,125.6 1705.4,125.6 	"/>
	<polygon class="st0" points="1702.1,118.9 1737.8,118.9 1741.2,125.6 	"/>
	<polygon class="st0" points="1705.4,125.6 1745.8,138.4 1711.9,138.4 	"/>
	<polygon class="st0" points="1705.4,125.6 1741.2,125.6 1745.8,138.4 	"/>
	<polygon class="st0" points="1711.9,138.4 1749.9,149.6 1715.9,149.6 	"/>
	<polygon class="st0" points="1711.9,138.4 1745.8,138.4 1749.9,149.6 	"/>
	<polygon class="st0" points="1715.9,149.6 1752.1,158.9 1719.3,158.9 	"/>
	<polygon class="st0" points="1715.9,149.6 1749.9,149.6 1752.1,158.9 	"/>
	<polygon class="st0" points="1719.3,158.9 1755.8,174.4 1723,174.4 	"/>
	<polygon class="st0" points="1719.3,158.9 1752.1,158.9 1755.8,174.4 	"/>
	<polygon class="st0" points="1723,174.4 1756.5,180.1 1724.3,180.1 	"/>
	<polygon class="st0" points="1723,174.4 1755.8,174.4 1756.5,180.1 	"/>
	<polygon class="st0" points="1724.3,180.1 1758.8,199.8 1726.6,199.8 	"/>
	<polygon class="st0" points="1724.3,180.1 1756.5,180.1 1758.8,199.8 	"/>
	<polygon class="st0" points="1726.6,199.8 1758.8,201.7 1726.9,201.7 	"/>
	<polygon class="st0" points="1726.6,199.8 1758.8,199.8 1758.8,201.7 	"/>
	<polygon class="st0" points="1726.9,201.7 1758.8,223.5 1726.9,223.5 	"/>
	<polygon class="st0" points="1726.9,201.7 1758.8,201.7 1758.8,223.5 	"/>
	<polygon class="st0" points="1726.9,223.5 1758.8,225.3 1726.6,225.3 	"/>
	<polygon class="st0" points="1726.9,223.5 1758.8,223.5 1758.8,225.3 	"/>
	<polygon class="st0" points="1726.6,225.3 1756.5,245.1 1724.3,245.1 	"/>
	<polygon class="st0" points="1726.6,225.3 1758.8,225.3 1756.5,245.1 	"/>
	<polygon class="st0" points="1724.3,245.1 1755.8,250.7 1723,250.7 	"/>
	<polygon class="st0" points="1724.3,245.1 1756.5,245.1 1755.8,250.7 	"/>
	<polygon class="st0" points="1723,250.7 1752.1,266.3 1719.3,266.3 	"/>
	<polygon class="st0" points="1723,250.7 1755.8,250.7 1752.1,266.3 	"/>
	<polygon class="st0" points="1719.3,266.3 1749.9,275.6 1715.9,275.6 	"/>
	<polygon class="st0" points="1719.3,266.3 1752.1,266.3 1749.9,275.6 	"/>
	<polygon class="st0" points="1715.9,275.6 1745.8,286.8 1711.9,286.8 	"/>
	<polygon class="st0" points="1715.9,275.6 1749.9,275.6 1745.8,286.8 	"/>
	<polygon class="st0" points="1711.9,286.8 1741.2,299.6 1705.4,299.6 	"/>
	<polygon class="st0" points="1711.9,286.8 1745.8,286.8 1741.2,299.6 	"/>
	<polygon class="st0" points="1705.4,299.6 1737.8,306.2 1702.1,306.2 	"/>
	<polygon class="st0" points="1705.4,299.6 1741.2,299.6 1737.8,306.2 	"/>
	<polygon class="st0" points="1702.1,306.2 1729.7,322.4 1691.5,322.4 	"/>
	<polygon class="st0" points="1702.1,306.2 1737.8,306.2 1729.7,322.4 	"/>
	<polygon class="st0" points="1691.5,322.4 1728.4,324.4 1690.2,324.4 	"/>
	<polygon class="st0" points="1691.5,322.4 1729.7,322.4 1728.4,324.4 	"/>
	<polygon class="st0" points="1690.2,324.4 1726.9,326.7 1688.7,326.7 	"/>
	<polygon class="st0" points="1690.2,324.4 1728.4,324.4 1726.9,326.7 	"/>
	<polygon class="st0" points="1688.7,326.7 1725.2,329.2 1687.8,329.2 	"/>
	<polygon class="st0" points="1688.7,326.7 1726.9,326.7 1725.2,329.2 	"/>
	<polygon class="st0" points="1687.8,329.2 1723.5,331.8 1687.4,331.8 	"/>
	<polygon class="st0" points="1687.8,329.2 1725.2,329.2 1723.5,331.8 	"/>
	<polygon class="st0" points="1687.4,331.8 1721.7,334.5 1687.4,334.5 	"/>
	<polygon class="st0" points="1687.4,331.8 1723.5,331.8 1721.7,334.5 	"/>
	<polygon class="st0" points="1687.4,334.5 1720,337.1 1687.9,337.1 	"/>
	<polygon class="st0" points="1687.4,334.5 1721.7,334.5 1720,337.1 	"/>
	<polygon class="st0" points="1687.9,337.1 1718.3,339.6 1689,339.6 	"/>
	<polygon class="st0" points="1687.9,337.1 1720,337.1 1718.3,339.6 	"/>
	<polygon class="st0" points="1689,339.6 1716.9,341.9 1690.4,341.9 	"/>
	<polygon class="st0" points="1689,339.6 1718.3,339.6 1716.9,341.9 	"/>
	<polygon class="st0" points="1690.4,341.9 1715.7,343.7 1692.2,343.7 	"/>
	<polygon class="st0" points="1690.4,341.9 1716.9,341.9 1715.7,343.7 	"/>
	<polygon class="st0" points="1692.2,343.7 1715.6,343.8 1692.3,343.8 	"/>
	<polygon class="st0" points="1692.2,343.7 1715.7,343.7 1715.6,343.8 	"/>
	<polygon class="st0" points="1692.3,343.8 1713.9,345.7 1694.5,345.7 	"/>
	<polygon class="st0" points="1692.3,343.8 1715.6,343.8 1713.9,345.7 	"/>
	<polygon class="st0" points="1694.5,345.7 1713.4,346 1694.9,346 	"/>
	<polygon class="st0" points="1694.5,345.7 1713.9,345.7 1713.4,346 	"/>
	<polygon class="st0" points="1694.9,346 1711.9,347.2 1696.6,347.2 	"/>
	<polygon class="st0" points="1694.9,346 1713.4,346 1711.9,347.2 	"/>
	<polygon class="st0" points="1696.6,347.2 1711.3,347.6 1697,347.6 	"/>
	<polygon class="st0" points="1696.6,347.2 1711.9,347.2 1711.3,347.6 	"/>
	<polygon class="st0" points="1697,347.6 1709.5,348.4 1698.9,348.4 	"/>
	<polygon class="st0" points="1697,347.6 1711.3,347.6 1709.5,348.4 	"/>
	<polygon class="st0" points="1698.9,348.4 1708.9,348.7 1699.3,348.7 	"/>
	<polygon class="st0" points="1698.9,348.4 1709.5,348.4 1708.9,348.7 	"/>
	<polygon class="st0" points="1699.3,348.7 1707,349.2 1701.5,349.2 	"/>
	<polygon class="st0" points="1699.3,348.7 1708.9,348.7 1707,349.2 	"/>
	<polygon class="st0" points="1701.8,349.3 1706.2,349.3 1704.4,349.5 	"/>
	<polygon class="st0" points="1701.5,349.2 1706.2,349.3 1701.8,349.3 	"/>
	<polygon class="st0" points="1701.5,349.2 1707,349.2 1706.2,349.3 	"/>
	<polygon class="st1" points="1715.7,81.4 1713.9,79.5 1711.9,77.9 1709.5,76.7 1707,76 1704.4,75.7 1701.8,75.9 1699.3,76.5 
		1697,77.6 1694.9,79.1 1692.3,81.4 1690.4,83.3 1689,85.5 1687.9,88 1687.4,90.7 1687.4,93.3 1687.8,96 1688.7,98.5 1690.2,100.8 
		1702.1,118.9 1711.9,138.4 1719.3,158.9 1724.3,180.1 1726.9,201.7 1726.9,223.5 1724.3,245.1 1719.3,266.3 1711.9,286.8 
		1702.1,306.2 1690.2,324.4 1688.7,326.7 1687.8,329.2 1687.4,331.8 1687.4,334.5 1687.9,337.1 1689,339.6 1690.4,341.9 
		1692.3,343.8 1694.9,346 1697,347.6 1699.3,348.7 1701.8,349.3 1704.4,349.5 1707,349.2 1709.5,348.4 1711.9,347.2 1713.9,345.7 
		1715.7,343.7 1729.7,322.4 1741.2,299.6 1749.9,275.6 1755.8,250.7 1758.8,225.3 1758.8,199.8 1755.8,174.4 1749.9,149.6 
		1741.2,125.6 1729.7,102.8 1715.7,81.4 	"/>
	<polygon class="st0" points="1786.7,21.2 1788.8,21.4 1784.2,21.4 	"/>
	<polygon class="st0" points="1784.2,21.4 1789.3,21.5 1783.9,21.5 	"/>
	<polygon class="st0" points="1784.2,21.4 1788.8,21.4 1789.3,21.5 	"/>
	<polygon class="st0" points="1783.9,21.5 1791.4,22.1 1781.7,22.1 	"/>
	<polygon class="st0" points="1783.9,21.5 1789.3,21.5 1791.4,22.1 	"/>
	<polygon class="st0" points="1781.7,22.1 1791.8,22.2 1781.5,22.2 	"/>
	<polygon class="st0" points="1781.7,22.1 1791.4,22.1 1791.8,22.2 	"/>
	<polygon class="st0" points="1781.5,22.2 1793.7,23.2 1779.4,23.2 	"/>
	<polygon class="st0" points="1781.5,22.2 1791.8,22.2 1793.7,23.2 	"/>
	<polygon class="st0" points="1779.4,23.2 1794,23.3 1779.1,23.3 	"/>
	<polygon class="st0" points="1779.4,23.2 1793.7,23.2 1794,23.3 	"/>
	<polygon class="st0" points="1779.1,23.3 1795.9,24.7 1777.2,24.7 	"/>
	<polygon class="st0" points="1779.1,23.3 1794,23.3 1795.9,24.7 	"/>
	<polygon class="st0" points="1777.2,24.7 1796.1,24.9 1777.1,24.9 	"/>
	<polygon class="st0" points="1777.2,24.7 1795.9,24.7 1796.1,24.9 	"/>
	<polygon class="st0" points="1777.1,24.9 1797.8,26.7 1774.9,26.7 	"/>
	<polygon class="st0" points="1777.1,24.9 1796.1,24.9 1797.8,26.7 	"/>
	<polygon class="st0" points="1774.9,26.7 1798.3,27.4 1774.1,27.4 	"/>
	<polygon class="st0" points="1774.9,26.7 1797.8,26.7 1798.3,27.4 	"/>
	<polygon class="st0" points="1774.1,27.4 1799.7,29.3 1772.2,29.3 	"/>
	<polygon class="st0" points="1774.1,27.4 1798.3,27.4 1799.7,29.3 	"/>
	<polygon class="st0" points="1772.2,29.3 1801.3,31.6 1770.8,31.6 	"/>
	<polygon class="st0" points="1772.2,29.3 1799.7,29.3 1801.3,31.6 	"/>
	<polygon class="st0" points="1770.8,31.6 1803,34.1 1769.7,34.1 	"/>
	<polygon class="st0" points="1770.8,31.6 1801.3,31.6 1803,34.1 	"/>
	<polygon class="st0" points="1769.7,34.1 1804.9,36.8 1769.2,36.8 	"/>
	<polygon class="st0" points="1769.7,34.1 1803,34.1 1804.9,36.8 	"/>
	<polygon class="st0" points="1769.2,36.8 1806.8,39.5 1769.2,39.5 	"/>
	<polygon class="st0" points="1769.2,36.8 1804.9,36.8 1806.8,39.5 	"/>
	<polygon class="st0" points="1769.2,39.5 1808.7,42.2 1769.7,42.2 	"/>
	<polygon class="st0" points="1769.2,39.5 1806.8,39.5 1808.7,42.2 	"/>
	<polygon class="st0" points="1769.7,42.2 1810.5,44.7 1770.7,44.7 	"/>
	<polygon class="st0" points="1769.7,42.2 1808.7,42.2 1810.5,44.7 	"/>
	<polygon class="st0" points="1770.7,44.7 1812.1,47 1772.1,47 	"/>
	<polygon class="st0" points="1770.7,44.7 1810.5,44.7 1812.1,47 	"/>
	<polygon class="st0" points="1772.1,47 1814.3,50.1 1774.3,50.1 	"/>
	<polygon class="st0" points="1772.1,47 1812.1,47 1814.3,50.1 	"/>
	<polygon class="st0" points="1774.3,50.1 1825.4,69.5 1787.8,69.5 	"/>
	<polygon class="st0" points="1774.3,50.1 1814.3,50.1 1825.4,69.5 	"/>
	<polygon class="st0" points="1787.8,69.5 1828.5,74.9 1790.8,74.9 	"/>
	<polygon class="st0" points="1787.8,69.5 1825.4,69.5 1828.5,74.9 	"/>
	<polygon class="st0" points="1790.8,74.9 1836.8,93.4 1801.2,93.4 	"/>
	<polygon class="st0" points="1790.8,74.9 1828.5,74.9 1836.8,93.4 	"/>
	<polygon class="st0" points="1801.2,93.4 1840.2,100.9 1804.4,100.9 	"/>
	<polygon class="st0" points="1801.2,93.4 1836.8,93.4 1840.2,100.9 	"/>
	<polygon class="st0" points="1804.4,100.9 1846.3,118.6 1812,118.6 	"/>
	<polygon class="st0" points="1804.4,100.9 1840.2,100.9 1846.3,118.6 	"/>
	<polygon class="st0" points="1812,118.6 1849.5,128 1814.9,128 	"/>
	<polygon class="st0" points="1812,118.6 1846.3,118.6 1849.5,128 	"/>
	<polygon class="st0" points="1814.9,128 1853.6,144.7 1820.2,144.7 	"/>
	<polygon class="st0" points="1814.9,128 1849.5,128 1853.6,144.7 	"/>
	<polygon class="st0" points="1820.2,144.7 1856.2,155.8 1822.5,155.8 	"/>
	<polygon class="st0" points="1820.2,144.7 1853.6,144.7 1856.2,155.8 	"/>
	<polygon class="st0" points="1822.5,155.8 1858.5,171.6 1825.7,171.6 	"/>
	<polygon class="st0" points="1822.5,155.8 1856.2,155.8 1858.5,171.6 	"/>
	<polygon class="st0" points="1825.7,171.6 1860.2,184.1 1827,184.1 	"/>
	<polygon class="st0" points="1825.7,171.6 1858.5,171.6 1860.2,184.1 	"/>
	<polygon class="st0" points="1827,184.1 1860.9,198.9 1828.5,198.9 	"/>
	<polygon class="st0" points="1827,184.1 1860.2,184.1 1860.9,198.9 	"/>
	<polygon class="st0" points="1828.5,198.9 1861.6,212.6 1828.5,212.6 	"/>
	<polygon class="st0" points="1828.5,198.9 1860.9,198.9 1861.6,212.6 	"/>
	<polygon class="st0" points="1828.5,212.6 1860.9,226.3 1828.5,226.3 	"/>
	<polygon class="st0" points="1828.5,212.6 1861.6,212.6 1860.9,226.3 	"/>
	<polygon class="st0" points="1828.5,226.3 1860.2,241.1 1827,241.1 	"/>
	<polygon class="st0" points="1828.5,226.3 1860.9,226.3 1860.2,241.1 	"/>
	<polygon class="st0" points="1827,241.1 1858.5,253.6 1825.7,253.6 	"/>
	<polygon class="st0" points="1827,241.1 1860.2,241.1 1858.5,253.6 	"/>
	<polygon class="st0" points="1825.7,253.6 1856.2,269.4 1822.5,269.4 	"/>
	<polygon class="st0" points="1825.7,253.6 1858.5,253.6 1856.2,269.4 	"/>
	<polygon class="st0" points="1822.5,269.4 1853.6,280.4 1820.2,280.4 	"/>
	<polygon class="st0" points="1822.5,269.4 1856.2,269.4 1853.6,280.4 	"/>
	<polygon class="st0" points="1820.2,280.4 1849.5,297.2 1814.9,297.2 	"/>
	<polygon class="st0" points="1820.2,280.4 1853.6,280.4 1849.5,297.2 	"/>
	<polygon class="st0" points="1814.9,297.2 1846.3,306.6 1812,306.6 	"/>
	<polygon class="st0" points="1814.9,297.2 1849.5,297.2 1846.3,306.6 	"/>
	<polygon class="st0" points="1812,306.6 1840.2,324.3 1804.4,324.3 	"/>
	<polygon class="st0" points="1812,306.6 1846.3,306.6 1840.2,324.3 	"/>
	<polygon class="st0" points="1804.4,324.3 1836.8,331.8 1801.2,331.8 	"/>
	<polygon class="st0" points="1804.4,324.3 1840.2,324.3 1836.8,331.8 	"/>
	<polygon class="st0" points="1801.2,331.8 1828.5,350.3 1790.8,350.3 	"/>
	<polygon class="st0" points="1801.2,331.8 1836.8,331.8 1828.5,350.3 	"/>
	<polygon class="st0" points="1790.8,350.3 1825.4,355.7 1787.8,355.7 	"/>
	<polygon class="st0" points="1790.8,350.3 1828.5,350.3 1825.4,355.7 	"/>
	<polygon class="st0" points="1787.8,355.7 1814.3,375.1 1774.3,375.1 	"/>
	<polygon class="st0" points="1787.8,355.7 1825.4,355.7 1814.3,375.1 	"/>
	<polygon class="st0" points="1774.3,375.1 1812.1,378.2 1772.1,378.2 	"/>
	<polygon class="st0" points="1774.3,375.1 1814.3,375.1 1812.1,378.2 	"/>
	<polygon class="st0" points="1772.1,378.2 1810.5,380.5 1770.7,380.5 	"/>
	<polygon class="st0" points="1772.1,378.2 1812.1,378.2 1810.5,380.5 	"/>
	<polygon class="st0" points="1770.7,380.5 1808.7,383 1769.7,383 	"/>
	<polygon class="st0" points="1770.7,380.5 1810.5,380.5 1808.7,383 	"/>
	<polygon class="st0" points="1769.7,383 1806.8,385.7 1769.2,385.7 	"/>
	<polygon class="st0" points="1769.7,383 1808.7,383 1806.8,385.7 	"/>
	<polygon class="st0" points="1769.2,385.7 1804.9,388.4 1769.2,388.4 	"/>
	<polygon class="st0" points="1769.2,385.7 1806.8,385.7 1804.9,388.4 	"/>
	<polygon class="st0" points="1769.2,388.4 1803,391.1 1769.7,391.1 	"/>
	<polygon class="st0" points="1769.2,388.4 1804.9,388.4 1803,391.1 	"/>
	<polygon class="st0" points="1769.7,391.1 1801.3,393.6 1770.8,393.6 	"/>
	<polygon class="st0" points="1769.7,391.1 1803,391.1 1801.3,393.6 	"/>
	<polygon class="st0" points="1770.8,393.6 1799.7,395.8 1772.2,395.8 	"/>
	<polygon class="st0" points="1770.8,393.6 1801.3,393.6 1799.7,395.8 	"/>
	<polygon class="st0" points="1772.2,395.8 1798.3,397.8 1774.1,397.8 	"/>
	<polygon class="st0" points="1772.2,395.8 1799.7,395.8 1798.3,397.8 	"/>
	<polygon class="st0" points="1774.1,397.8 1797.8,398.4 1774.9,398.4 	"/>
	<polygon class="st0" points="1774.1,397.8 1798.3,397.8 1797.8,398.4 	"/>
	<polygon class="st0" points="1774.9,398.4 1796.1,400.3 1777.1,400.3 	"/>
	<polygon class="st0" points="1774.9,398.4 1797.8,398.4 1796.1,400.3 	"/>
	<polygon class="st0" points="1777.1,400.3 1795.9,400.5 1777.2,400.5 	"/>
	<polygon class="st0" points="1777.1,400.3 1796.1,400.3 1795.9,400.5 	"/>
	<polygon class="st0" points="1777.2,400.5 1794,401.9 1779.1,401.9 	"/>
	<polygon class="st0" points="1777.2,400.5 1795.9,400.5 1794,401.9 	"/>
	<polygon class="st0" points="1779.1,401.9 1793.7,402 1779.4,402 	"/>
	<polygon class="st0" points="1779.1,401.9 1794,401.9 1793.7,402 	"/>
	<polygon class="st0" points="1779.4,402 1791.8,403 1781.5,403 	"/>
	<polygon class="st0" points="1779.4,402 1793.7,402 1791.8,403 	"/>
	<polygon class="st0" points="1781.5,403 1791.4,403.1 1781.7,403.1 	"/>
	<polygon class="st0" points="1781.5,403 1791.8,403 1791.4,403.1 	"/>
	<polygon class="st0" points="1781.7,403.1 1789.3,403.7 1783.9,403.7 	"/>
	<polygon class="st0" points="1781.7,403.1 1791.4,403.1 1789.3,403.7 	"/>
	<polygon class="st0" points="1784.2,403.8 1788.8,403.8 1786.7,404 	"/>
	<polygon class="st0" points="1783.9,403.7 1788.8,403.8 1784.2,403.8 	"/>
	<polygon class="st0" points="1783.9,403.7 1789.3,403.7 1788.8,403.8 	"/>
	<polygon class="st1" points="1797.8,26.7 1796.1,24.9 1794,23.3 1791.8,22.2 1789.3,21.5 1786.7,21.2 1784.2,21.4 1781.7,22.1 
		1779.4,23.2 1777.2,24.7 1774.1,27.4 1772.2,29.3 1770.8,31.6 1769.7,34.1 1769.2,36.8 1769.2,39.5 1769.7,42.2 1770.7,44.7 
		1772.1,47 1787.8,69.5 1801.2,93.4 1812,118.6 1820.2,144.7 1825.7,171.6 1828.5,198.9 1828.5,226.3 1825.7,253.6 1820.2,280.4 
		1812,306.6 1801.2,331.8 1787.8,355.7 1772.1,378.2 1770.7,380.5 1769.7,383 1769.2,385.7 1769.2,388.4 1769.7,391.1 1770.8,393.6 
		1772.2,395.8 1774.1,397.8 1777.2,400.5 1779.4,402 1781.7,403.1 1784.2,403.8 1786.7,404 1789.3,403.7 1791.8,403 1794,401.9 
		1796.1,400.3 1797.8,398.4 1814.3,375.1 1828.5,350.3 1840.2,324.3 1849.5,297.2 1856.2,269.4 1860.2,241.1 1861.6,212.6 
		1860.2,184.1 1856.2,155.8 1849.5,128 1840.2,100.9 1828.5,74.9 1814.3,50.1 1797.8,26.7 	"/>
	<polygon class="st0" points="1331.4,21.2 1333.9,21.4 1329.3,21.4 	"/>
	<polygon class="st0" points="1329.3,21.4 1334.1,21.5 1328.8,21.5 	"/>
	<polygon class="st0" points="1329.3,21.4 1333.9,21.4 1334.1,21.5 	"/>
	<polygon class="st0" points="1328.8,21.5 1336.4,22.1 1326.7,22.1 	"/>
	<polygon class="st0" points="1328.8,21.5 1334.1,21.5 1336.4,22.1 	"/>
	<polygon class="st0" points="1326.7,22.1 1336.6,22.2 1326.4,22.2 	"/>
	<polygon class="st0" points="1326.7,22.1 1336.4,22.1 1336.6,22.2 	"/>
	<polygon class="st0" points="1326.4,22.2 1338.8,23.2 1324.3,23.2 	"/>
	<polygon class="st0" points="1326.4,22.2 1336.6,22.2 1338.8,23.2 	"/>
	<polygon class="st0" points="1324.3,23.2 1338.9,23.3 1324.1,23.3 	"/>
	<polygon class="st0" points="1324.3,23.2 1338.8,23.2 1338.9,23.3 	"/>
	<polygon class="st0" points="1324.1,23.3 1340.8,24.7 1322.2,24.7 	"/>
	<polygon class="st0" points="1324.1,23.3 1338.9,23.3 1340.8,24.7 	"/>
	<polygon class="st0" points="1322.2,24.7 1341,24.9 1322,24.9 	"/>
	<polygon class="st0" points="1322.2,24.7 1340.8,24.7 1341,24.9 	"/>
	<polygon class="st0" points="1322,24.9 1343.2,26.7 1320.2,26.7 	"/>
	<polygon class="st0" points="1322,24.9 1341,24.9 1343.2,26.7 	"/>
	<polygon class="st0" points="1320.2,26.7 1344,27.4 1319.8,27.4 	"/>
	<polygon class="st0" points="1320.2,26.7 1343.2,26.7 1344,27.4 	"/>
	<polygon class="st0" points="1319.8,27.4 1345.9,29.3 1318.4,29.3 	"/>
	<polygon class="st0" points="1319.8,27.4 1344,27.4 1345.9,29.3 	"/>
	<polygon class="st0" points="1318.4,29.3 1347.3,31.6 1316.8,31.6 	"/>
	<polygon class="st0" points="1318.4,29.3 1345.9,29.3 1347.3,31.6 	"/>
	<polygon class="st0" points="1316.8,31.6 1348.4,34.1 1315,34.1 	"/>
	<polygon class="st0" points="1316.8,31.6 1347.3,31.6 1348.4,34.1 	"/>
	<polygon class="st0" points="1315,34.1 1348.9,36.8 1313.2,36.8 	"/>
	<polygon class="st0" points="1315,34.1 1348.4,34.1 1348.9,36.8 	"/>
	<polygon class="st0" points="1313.2,36.8 1348.9,39.5 1311.2,39.5 	"/>
	<polygon class="st0" points="1313.2,36.8 1348.9,36.8 1348.9,39.5 	"/>
	<polygon class="st0" points="1311.2,39.5 1348.4,42.2 1309.4,42.2 	"/>
	<polygon class="st0" points="1311.2,39.5 1348.9,39.5 1348.4,42.2 	"/>
	<polygon class="st0" points="1309.4,42.2 1347.4,44.7 1307.6,44.7 	"/>
	<polygon class="st0" points="1309.4,42.2 1348.4,42.2 1347.4,44.7 	"/>
	<polygon class="st0" points="1307.6,44.7 1345.9,47 1306,47 	"/>
	<polygon class="st0" points="1307.6,44.7 1347.4,44.7 1345.9,47 	"/>
	<polygon class="st0" points="1306,47 1343.8,50.1 1303.8,50.1 	"/>
	<polygon class="st0" points="1306,47 1345.9,47 1343.8,50.1 	"/>
	<polygon class="st0" points="1303.8,50.1 1330.2,69.5 1292.7,69.5 	"/>
	<polygon class="st0" points="1303.8,50.1 1343.8,50.1 1330.2,69.5 	"/>
	<polygon class="st0" points="1292.7,69.5 1327.2,74.9 1289.6,74.9 	"/>
	<polygon class="st0" points="1292.7,69.5 1330.2,69.5 1327.2,74.9 	"/>
	<polygon class="st0" points="1289.6,74.9 1316.9,93.4 1281.2,93.4 	"/>
	<polygon class="st0" points="1289.6,74.9 1327.2,74.9 1316.9,93.4 	"/>
	<polygon class="st0" points="1281.2,93.4 1313.7,100.9 1277.8,100.9 	"/>
	<polygon class="st0" points="1281.2,93.4 1316.9,93.4 1313.7,100.9 	"/>
	<polygon class="st0" points="1277.8,100.9 1306.1,118.6 1271.8,118.6 	"/>
	<polygon class="st0" points="1277.8,100.9 1313.7,100.9 1306.1,118.6 	"/>
	<polygon class="st0" points="1271.8,118.6 1303.2,128 1268.6,128 	"/>
	<polygon class="st0" points="1271.8,118.6 1306.1,118.6 1303.2,128 	"/>
	<polygon class="st0" points="1268.6,128 1297.9,144.7 1264.5,144.7 	"/>
	<polygon class="st0" points="1268.6,128 1303.2,128 1297.9,144.7 	"/>
	<polygon class="st0" points="1264.5,144.7 1295.6,155.8 1261.9,155.8 	"/>
	<polygon class="st0" points="1264.5,144.7 1297.9,144.7 1295.6,155.8 	"/>
	<polygon class="st0" points="1261.9,155.8 1292.3,171.6 1259.6,171.6 	"/>
	<polygon class="st0" points="1261.9,155.8 1295.6,155.8 1292.3,171.6 	"/>
	<polygon class="st0" points="1259.6,171.6 1291.1,184.1 1257.8,184.1 	"/>
	<polygon class="st0" points="1259.6,171.6 1292.3,171.6 1291.1,184.1 	"/>
	<polygon class="st0" points="1257.8,184.1 1289.6,198.9 1257.1,198.9 	"/>
	<polygon class="st0" points="1257.8,184.1 1291.1,184.1 1289.6,198.9 	"/>
	<polygon class="st0" points="1257.1,198.9 1289.6,212.6 1256.5,212.6 	"/>
	<polygon class="st0" points="1257.1,198.9 1289.6,198.9 1289.6,212.6 	"/>
	<polygon class="st0" points="1256.5,212.6 1289.6,226.3 1257.1,226.3 	"/>
	<polygon class="st0" points="1256.5,212.6 1289.6,212.6 1289.6,226.3 	"/>
	<polygon class="st0" points="1257.1,226.3 1291.1,241.1 1257.8,241.1 	"/>
	<polygon class="st0" points="1257.1,226.3 1289.6,226.3 1291.1,241.1 	"/>
	<polygon class="st0" points="1257.8,241.1 1292.3,253.6 1259.6,253.6 	"/>
	<polygon class="st0" points="1257.8,241.1 1291.1,241.1 1292.3,253.6 	"/>
	<polygon class="st0" points="1259.6,253.6 1295.6,269.4 1261.9,269.4 	"/>
	<polygon class="st0" points="1259.6,253.6 1292.3,253.6 1295.6,269.4 	"/>
	<polygon class="st0" points="1261.9,269.4 1297.9,280.4 1264.5,280.4 	"/>
	<polygon class="st0" points="1261.9,269.4 1295.6,269.4 1297.9,280.4 	"/>
	<polygon class="st0" points="1264.5,280.4 1303.2,297.2 1268.6,297.2 	"/>
	<polygon class="st0" points="1264.5,280.4 1297.9,280.4 1303.2,297.2 	"/>
	<polygon class="st0" points="1268.6,297.2 1306.1,306.6 1271.8,306.6 	"/>
	<polygon class="st0" points="1268.6,297.2 1303.2,297.2 1306.1,306.6 	"/>
	<polygon class="st0" points="1271.8,306.6 1313.7,324.3 1277.8,324.3 	"/>
	<polygon class="st0" points="1271.8,306.6 1306.1,306.6 1313.7,324.3 	"/>
	<polygon class="st0" points="1277.8,324.3 1316.9,331.8 1281.2,331.8 	"/>
	<polygon class="st0" points="1277.8,324.3 1313.7,324.3 1316.9,331.8 	"/>
	<polygon class="st0" points="1281.2,331.8 1327.2,350.3 1289.6,350.3 	"/>
	<polygon class="st0" points="1281.2,331.8 1316.9,331.8 1327.2,350.3 	"/>
	<polygon class="st0" points="1289.6,350.3 1330.2,355.7 1292.7,355.7 	"/>
	<polygon class="st0" points="1289.6,350.3 1327.2,350.3 1330.2,355.7 	"/>
	<polygon class="st0" points="1292.7,355.7 1343.8,375.1 1303.8,375.1 	"/>
	<polygon class="st0" points="1292.7,355.7 1330.2,355.7 1343.8,375.1 	"/>
	<polygon class="st0" points="1303.8,375.1 1345.9,378.2 1306,378.2 	"/>
	<polygon class="st0" points="1303.8,375.1 1343.8,375.1 1345.9,378.2 	"/>
	<polygon class="st0" points="1306,378.2 1347.4,380.5 1307.6,380.5 	"/>
	<polygon class="st0" points="1306,378.2 1345.9,378.2 1347.4,380.5 	"/>
	<polygon class="st0" points="1307.6,380.5 1348.4,383 1309.4,383 	"/>
	<polygon class="st0" points="1307.6,380.5 1347.4,380.5 1348.4,383 	"/>
	<polygon class="st0" points="1309.4,383 1348.9,385.7 1311.2,385.7 	"/>
	<polygon class="st0" points="1309.4,383 1348.4,383 1348.9,385.7 	"/>
	<polygon class="st0" points="1311.2,385.7 1348.9,388.4 1313.2,388.4 	"/>
	<polygon class="st0" points="1311.2,385.7 1348.9,385.7 1348.9,388.4 	"/>
	<polygon class="st0" points="1313.2,388.4 1348.4,391.1 1315,391.1 	"/>
	<polygon class="st0" points="1313.2,388.4 1348.9,388.4 1348.4,391.1 	"/>
	<polygon class="st0" points="1315,391.1 1347.3,393.6 1316.8,393.6 	"/>
	<polygon class="st0" points="1315,391.1 1348.4,391.1 1347.3,393.6 	"/>
	<polygon class="st0" points="1316.8,393.6 1345.9,395.8 1318.4,395.8 	"/>
	<polygon class="st0" points="1316.8,393.6 1347.3,393.6 1345.9,395.8 	"/>
	<polygon class="st0" points="1318.4,395.8 1344,397.8 1319.8,397.8 	"/>
	<polygon class="st0" points="1318.4,395.8 1345.9,395.8 1344,397.8 	"/>
	<polygon class="st0" points="1319.8,397.8 1343.2,398.4 1320.2,398.4 	"/>
	<polygon class="st0" points="1319.8,397.8 1344,397.8 1343.2,398.4 	"/>
	<polygon class="st0" points="1320.2,398.4 1341,400.3 1322,400.3 	"/>
	<polygon class="st0" points="1320.2,398.4 1343.2,398.4 1341,400.3 	"/>
	<polygon class="st0" points="1322,400.3 1340.8,400.5 1322.2,400.5 	"/>
	<polygon class="st0" points="1322,400.3 1341,400.3 1340.8,400.5 	"/>
	<polygon class="st0" points="1322.2,400.5 1338.9,401.9 1324.1,401.9 	"/>
	<polygon class="st0" points="1322.2,400.5 1340.8,400.5 1338.9,401.9 	"/>
	<polygon class="st0" points="1324.1,401.9 1338.8,402 1324.3,402 	"/>
	<polygon class="st0" points="1324.1,401.9 1338.9,401.9 1338.8,402 	"/>
	<polygon class="st0" points="1324.3,402 1336.6,403 1326.4,403 	"/>
	<polygon class="st0" points="1324.3,402 1338.8,402 1336.6,403 	"/>
	<polygon class="st0" points="1326.4,403 1336.4,403.1 1326.7,403.1 	"/>
	<polygon class="st0" points="1326.4,403 1336.6,403 1336.4,403.1 	"/>
	<polygon class="st0" points="1326.7,403.1 1334.1,403.7 1328.8,403.7 	"/>
	<polygon class="st0" points="1326.7,403.1 1336.4,403.1 1334.1,403.7 	"/>
	<polygon class="st0" points="1329.3,403.8 1333.9,403.8 1331.4,404 	"/>
	<polygon class="st0" points="1328.8,403.7 1333.9,403.8 1329.3,403.8 	"/>
	<polygon class="st0" points="1328.8,403.7 1334.1,403.7 1333.9,403.8 	"/>
	<polygon class="st1" points="1345.9,47 1347.4,44.7 1348.4,42.2 1348.9,39.5 1348.9,36.8 1348.4,34.1 1347.3,31.6 1345.9,29.3 
		1344,27.4 1340.8,24.7 1338.8,23.2 1336.4,22.1 1333.9,21.4 1331.4,21.2 1328.8,21.5 1326.4,22.2 1324.1,23.3 1322,24.9 
		1320.2,26.7 1303.8,50.1 1289.6,74.9 1277.8,100.9 1268.6,128 1261.9,155.8 1257.8,184.1 1256.5,212.6 1257.8,241.1 1261.9,269.4 
		1268.6,297.2 1277.8,324.3 1289.6,350.3 1303.8,375.1 1320.2,398.4 1322,400.3 1324.1,401.9 1326.4,403 1328.8,403.7 1331.4,404 
		1333.9,403.8 1336.4,403.1 1338.8,402 1340.8,400.5 1344,397.8 1345.9,395.8 1347.3,393.6 1348.4,391.1 1348.9,388.4 1348.9,385.7 
		1348.4,383 1347.4,380.5 1345.9,378.2 1330.2,355.7 1316.9,331.8 1306.1,306.6 1297.9,280.4 1292.3,253.6 1289.6,226.3 
		1289.6,198.9 1292.3,171.6 1297.9,144.7 1306.1,118.6 1316.9,93.4 1330.2,69.5 1345.9,47 	"/>
	<polygon class="st0" points="1413.6,75.7 1416.2,75.9 1411.9,75.9 	"/>
	<polygon class="st0" points="1411.9,75.9 1416.6,76 1411.1,76 	"/>
	<polygon class="st0" points="1411.9,75.9 1416.2,75.9 1416.6,76 	"/>
	<polygon class="st0" points="1411.1,76 1418.7,76.5 1409.2,76.5 	"/>
	<polygon class="st0" points="1411.1,76 1416.6,76 1418.7,76.5 	"/>
	<polygon class="st0" points="1409.2,76.5 1419.1,76.7 1408.5,76.7 	"/>
	<polygon class="st0" points="1409.2,76.5 1418.7,76.5 1419.1,76.7 	"/>
	<polygon class="st0" points="1408.5,76.7 1421.1,77.6 1406.8,77.6 	"/>
	<polygon class="st0" points="1408.5,76.7 1419.1,76.7 1421.1,77.6 	"/>
	<polygon class="st0" points="1406.8,77.6 1421.5,77.9 1406.3,77.9 	"/>
	<polygon class="st0" points="1406.8,77.6 1421.1,77.6 1421.5,77.9 	"/>
	<polygon class="st0" points="1406.3,77.9 1423.2,79.1 1404.6,79.1 	"/>
	<polygon class="st0" points="1406.3,77.9 1421.5,77.9 1423.2,79.1 	"/>
	<polygon class="st0" points="1404.6,79.1 1423.6,79.5 1404.2,79.5 	"/>
	<polygon class="st0" points="1404.6,79.1 1423.2,79.1 1423.6,79.5 	"/>
	<polygon class="st0" points="1404.2,79.5 1425.8,81.4 1402.5,81.4 	"/>
	<polygon class="st0" points="1404.2,79.5 1423.6,79.5 1425.8,81.4 	"/>
	<polygon class="st0" points="1402.5,81.4 1425.9,81.4 1402.5,81.4 	"/>
	<polygon class="st0" points="1402.5,81.4 1425.8,81.4 1425.9,81.4 	"/>
	<polygon class="st0" points="1402.5,81.4 1427.7,83.3 1401.2,83.3 	"/>
	<polygon class="st0" points="1402.5,81.4 1425.9,81.4 1427.7,83.3 	"/>
	<polygon class="st0" points="1401.2,83.3 1429.1,85.5 1399.7,85.5 	"/>
	<polygon class="st0" points="1401.2,83.3 1427.7,83.3 1429.1,85.5 	"/>
	<polygon class="st0" points="1399.7,85.5 1430.2,88 1398.1,88 	"/>
	<polygon class="st0" points="1399.7,85.5 1429.1,85.5 1430.2,88 	"/>
	<polygon class="st0" points="1398.1,88 1430.7,90.7 1396.4,90.7 	"/>
	<polygon class="st0" points="1398.1,88 1430.2,88 1430.7,90.7 	"/>
	<polygon class="st0" points="1396.4,90.7 1430.7,93.3 1394.6,93.3 	"/>
	<polygon class="st0" points="1396.4,90.7 1430.7,90.7 1430.7,93.3 	"/>
	<polygon class="st0" points="1394.6,93.3 1430.3,96 1392.9,96 	"/>
	<polygon class="st0" points="1394.6,93.3 1430.7,93.3 1430.3,96 	"/>
	<polygon class="st0" points="1392.9,96 1429.3,98.5 1391.3,98.5 	"/>
	<polygon class="st0" points="1392.9,96 1430.3,96 1429.3,98.5 	"/>
	<polygon class="st0" points="1391.3,98.5 1428,100.8 1389.8,100.8 	"/>
	<polygon class="st0" points="1391.3,98.5 1429.3,98.5 1428,100.8 	"/>
	<polygon class="st0" points="1389.8,100.8 1426.6,102.8 1388.4,102.8 	"/>
	<polygon class="st0" points="1389.8,100.8 1428,100.8 1426.6,102.8 	"/>
	<polygon class="st0" points="1388.4,102.8 1416,118.9 1380.3,118.9 	"/>
	<polygon class="st0" points="1388.4,102.8 1426.6,102.8 1416,118.9 	"/>
	<polygon class="st0" points="1380.3,118.9 1412.7,125.6 1376.9,125.6 	"/>
	<polygon class="st0" points="1380.3,118.9 1416,118.9 1412.7,125.6 	"/>
	<polygon class="st0" points="1376.9,125.6 1406.2,138.4 1372.2,138.4 	"/>
	<polygon class="st0" points="1376.9,125.6 1412.7,125.6 1406.2,138.4 	"/>
	<polygon class="st0" points="1372.2,138.4 1402.2,149.6 1368.2,149.6 	"/>
	<polygon class="st0" points="1372.2,138.4 1406.2,138.4 1402.2,149.6 	"/>
	<polygon class="st0" points="1368.2,149.6 1398.8,158.9 1366,158.9 	"/>
	<polygon class="st0" points="1368.2,149.6 1402.2,149.6 1398.8,158.9 	"/>
	<polygon class="st0" points="1366,158.9 1395.1,174.4 1362.3,174.4 	"/>
	<polygon class="st0" points="1366,158.9 1398.8,158.9 1395.1,174.4 	"/>
	<polygon class="st0" points="1362.3,174.4 1393.8,180.1 1361.7,180.1 	"/>
	<polygon class="st0" points="1362.3,174.4 1395.1,174.4 1393.8,180.1 	"/>
	<polygon class="st0" points="1361.7,180.1 1391.5,199.8 1359.3,199.8 	"/>
	<polygon class="st0" points="1361.7,180.1 1393.8,180.1 1391.5,199.8 	"/>
	<polygon class="st0" points="1359.3,199.8 1391.3,201.7 1359.3,201.7 	"/>
	<polygon class="st0" points="1359.3,199.8 1391.5,199.8 1391.3,201.7 	"/>
	<polygon class="st0" points="1359.3,201.7 1391.3,223.5 1359.3,223.5 	"/>
	<polygon class="st0" points="1359.3,201.7 1391.3,201.7 1391.3,223.5 	"/>
	<polygon class="st0" points="1359.3,223.5 1391.5,225.3 1359.3,225.3 	"/>
	<polygon class="st0" points="1359.3,223.5 1391.3,223.5 1391.5,225.3 	"/>
	<polygon class="st0" points="1359.3,225.3 1393.8,245.1 1361.7,245.1 	"/>
	<polygon class="st0" points="1359.3,225.3 1391.5,225.3 1393.8,245.1 	"/>
	<polygon class="st0" points="1361.7,245.1 1395.1,250.7 1362.3,250.7 	"/>
	<polygon class="st0" points="1361.7,245.1 1393.8,245.1 1395.1,250.7 	"/>
	<polygon class="st0" points="1362.3,250.7 1398.8,266.3 1366,266.3 	"/>
	<polygon class="st0" points="1362.3,250.7 1395.1,250.7 1398.8,266.3 	"/>
	<polygon class="st0" points="1366,266.3 1402.2,275.6 1368.2,275.6 	"/>
	<polygon class="st0" points="1366,266.3 1398.8,266.3 1402.2,275.6 	"/>
	<polygon class="st0" points="1368.2,275.6 1406.2,286.8 1372.2,286.8 	"/>
	<polygon class="st0" points="1368.2,275.6 1402.2,275.6 1406.2,286.8 	"/>
	<polygon class="st0" points="1372.2,286.8 1412.7,299.6 1376.9,299.6 	"/>
	<polygon class="st0" points="1372.2,286.8 1406.2,286.8 1412.7,299.6 	"/>
	<polygon class="st0" points="1376.9,299.6 1416,306.2 1380.3,306.2 	"/>
	<polygon class="st0" points="1376.9,299.6 1412.7,299.6 1416,306.2 	"/>
	<polygon class="st0" points="1380.3,306.2 1426.6,322.4 1388.4,322.4 	"/>
	<polygon class="st0" points="1380.3,306.2 1416,306.2 1426.6,322.4 	"/>
	<polygon class="st0" points="1388.4,322.4 1428,324.4 1389.8,324.4 	"/>
	<polygon class="st0" points="1388.4,322.4 1426.6,322.4 1428,324.4 	"/>
	<polygon class="st0" points="1389.8,324.4 1429.3,326.7 1391.3,326.7 	"/>
	<polygon class="st0" points="1389.8,324.4 1428,324.4 1429.3,326.7 	"/>
	<polygon class="st0" points="1391.3,326.7 1430.3,329.2 1392.9,329.2 	"/>
	<polygon class="st0" points="1391.3,326.7 1429.3,326.7 1430.3,329.2 	"/>
	<polygon class="st0" points="1392.9,329.2 1430.7,331.8 1394.6,331.8 	"/>
	<polygon class="st0" points="1392.9,329.2 1430.3,329.2 1430.7,331.8 	"/>
	<polygon class="st0" points="1394.6,331.8 1430.7,334.5 1396.4,334.5 	"/>
	<polygon class="st0" points="1394.6,331.8 1430.7,331.8 1430.7,334.5 	"/>
	<polygon class="st0" points="1396.4,334.5 1430.2,337.1 1398.1,337.1 	"/>
	<polygon class="st0" points="1396.4,334.5 1430.7,334.5 1430.2,337.1 	"/>
	<polygon class="st0" points="1398.1,337.1 1429.1,339.6 1399.7,339.6 	"/>
	<polygon class="st0" points="1398.1,337.1 1430.2,337.1 1429.1,339.6 	"/>
	<polygon class="st0" points="1399.7,339.6 1427.7,341.9 1401.2,341.9 	"/>
	<polygon class="st0" points="1399.7,339.6 1429.1,339.6 1427.7,341.9 	"/>
	<polygon class="st0" points="1401.2,341.9 1425.9,343.7 1402.5,343.7 	"/>
	<polygon class="st0" points="1401.2,341.9 1427.7,341.9 1425.9,343.7 	"/>
	<polygon class="st0" points="1402.5,343.7 1425.8,343.8 1402.5,343.8 	"/>
	<polygon class="st0" points="1402.5,343.7 1425.9,343.7 1425.8,343.8 	"/>
	<polygon class="st0" points="1402.5,343.8 1423.6,345.7 1404.2,345.7 	"/>
	<polygon class="st0" points="1402.5,343.8 1425.8,343.8 1423.6,345.7 	"/>
	<polygon class="st0" points="1404.2,345.7 1423.2,346 1404.6,346 	"/>
	<polygon class="st0" points="1404.2,345.7 1423.6,345.7 1423.2,346 	"/>
	<polygon class="st0" points="1404.6,346 1421.5,347.2 1406.3,347.2 	"/>
	<polygon class="st0" points="1404.6,346 1423.2,346 1421.5,347.2 	"/>
	<polygon class="st0" points="1406.3,347.2 1421.1,347.6 1406.8,347.6 	"/>
	<polygon class="st0" points="1406.3,347.2 1421.5,347.2 1421.1,347.6 	"/>
	<polygon class="st0" points="1406.8,347.6 1419.1,348.4 1408.5,348.4 	"/>
	<polygon class="st0" points="1406.8,347.6 1421.1,347.6 1419.1,348.4 	"/>
	<polygon class="st0" points="1408.5,348.4 1418.7,348.7 1409.2,348.7 	"/>
	<polygon class="st0" points="1408.5,348.4 1419.1,348.4 1418.7,348.7 	"/>
	<polygon class="st0" points="1409.2,348.7 1416.6,349.2 1411.1,349.2 	"/>
	<polygon class="st0" points="1409.2,348.7 1418.7,348.7 1416.6,349.2 	"/>
	<polygon class="st0" points="1411.9,349.3 1416.2,349.3 1413.6,349.5 	"/>
	<polygon class="st0" points="1411.1,349.2 1416.2,349.3 1411.9,349.3 	"/>
	<polygon class="st0" points="1411.1,349.2 1416.6,349.2 1416.2,349.3 	"/>
	<polygon class="st1" points="1428,100.8 1429.3,98.5 1430.3,96 1430.7,93.3 1430.7,90.7 1430.2,88 1429.1,85.5 1427.7,83.3 
		1425.8,81.4 1423.2,79.1 1421.1,77.6 1418.7,76.5 1416.2,75.9 1413.6,75.7 1411.1,76 1408.5,76.7 1406.3,77.9 1404.2,79.5 
		1402.5,81.4 1388.4,102.8 1376.9,125.6 1368.2,149.6 1362.3,174.4 1359.3,199.8 1359.3,225.3 1362.3,250.7 1368.2,275.6 
		1376.9,299.6 1388.4,322.4 1402.5,343.7 1404.2,345.7 1406.3,347.2 1408.5,348.4 1411.1,349.2 1413.6,349.5 1416.2,349.3 
		1418.7,348.7 1421.1,347.6 1423.2,346 1425.8,343.8 1427.7,341.9 1429.1,339.6 1430.2,337.1 1430.7,334.5 1430.7,331.8 
		1430.3,329.2 1429.3,326.7 1428,324.4 1416,306.2 1406.2,286.8 1398.8,266.3 1393.8,245.1 1391.3,223.5 1391.3,201.7 1393.8,180.1 
		1398.8,158.9 1406.2,138.4 1416,118.9 1428,100.8 	"/>
</g>
</svg>
