<?xml version="1.0" encoding="utf-8"?>
<!-- Generator: Adobe Illustrator 21.0.2, SVG Export Plug-In . SVG Version: 6.00 Build 0)  -->
<svg version="1.1" id="Layer_1" xmlns="http://www.w3.org/2000/svg" xmlns:xlink="http://www.w3.org/1999/xlink" x="0px" y="0px"
	 viewBox="0 0 623.6 425.2" style="enable-background:new 0 0 623.6 425.2;" xml:space="preserve">
<style type="text/css">
	
		.st0{fill-rule:evenodd;clip-rule:evenodd;fill:#CB2E32;stroke:#FFFFFF;stroke-width:15;stroke-linejoin:bevel;stroke-miterlimit:10;}
	.st1{fill:#CB2E32;stroke:#FFFFFF;stroke-width:15;stroke-linejoin:bevel;stroke-miterlimit:10;}
</style>
<g>
	<polygon class="st0" points="311.8,60.6 314.4,61 309.3,61 	"/>
	<polygon class="st0" points="309.3,61 314.5,61.1 309.2,61.1 	"/>
	<polygon class="st0" points="309.3,61 314.4,61 314.5,61.1 	"/>
	<polygon class="st0" points="309.2,61.1 317.3,62.2 306.5,62.2 	"/>
	<polygon class="st0" points="309.2,61.1 314.5,61.1 317.3,62.2 	"/>
	<polygon class="st0" points="306.5,62.2 317.3,62.2 306.4,62.2 	"/>
	<polygon class="st0" points="306.5,62.2 317.3,62.2 317.3,62.2 	"/>
	<polygon class="st0" points="306.4,62.2 320.4,64.2 303.5,64.2 	"/>
	<polygon class="st0" points="306.4,62.2 317.3,62.2 320.4,64.2 	"/>
	<polygon class="st0" points="303.5,64.2 320.5,64.3 303.4,64.3 	"/>
	<polygon class="st0" points="303.5,64.2 320.4,64.2 320.5,64.3 	"/>
	<polygon class="st0" points="303.4,64.3 323.7,66.9 300.2,66.9 	"/>
	<polygon class="st0" points="303.4,64.3 320.5,64.3 323.7,66.9 	"/>
	<polygon class="st0" points="300.2,66.9 323.8,67 300.2,67 	"/>
	<polygon class="st0" points="300.2,66.9 323.7,66.9 323.8,67 	"/>
	<polygon class="st0" points="300.2,67 330.8,74.3 293.3,74.3 	"/>
	<polygon class="st0" points="300.2,67 323.8,67 330.8,74.3 	"/>
	<polygon class="st0" points="293.3,74.3 330.9,74.4 293.2,74.4 	"/>
	<polygon class="st0" points="293.3,74.3 330.8,74.3 330.9,74.4 	"/>
	<polygon class="st0" points="293.2,74.4 338.3,84 285.8,84 	"/>
	<polygon class="st0" points="293.2,74.4 330.9,74.4 338.3,84 	"/>
	<polygon class="st0" points="285.8,84 338.5,84.1 285.7,84.1 	"/>
	<polygon class="st0" points="285.8,84 338.3,84 338.5,84.1 	"/>
	<polygon class="st0" points="285.7,84.1 346.2,95.6 278,95.6 	"/>
	<polygon class="st0" points="285.7,84.1 338.5,84.1 346.2,95.6 	"/>
	<polygon class="st0" points="278,95.6 346.4,95.9 277.8,95.9 	"/>
	<polygon class="st0" points="278,95.6 346.2,95.6 346.4,95.9 	"/>
	<polygon class="st0" points="277.8,95.9 354.4,108.7 269.9,108.7 	"/>
	<polygon class="st0" points="277.8,95.9 346.4,95.9 354.4,108.7 	"/>
	<polygon class="st0" points="269.9,108.7 354.5,109.1 269.7,109.1 	"/>
	<polygon class="st0" points="269.9,108.7 354.4,108.7 354.5,109.1 	"/>
	<polygon class="st0" points="269.7,109.1 362.4,123.2 261.8,123.2 	"/>
	<polygon class="st0" points="269.7,109.1 354.5,109.1 362.4,123.2 	"/>
	<polygon class="st0" points="261.8,123.2 362.7,123.6 261.6,123.6 	"/>
	<polygon class="st0" points="261.8,123.2 362.4,123.2 362.7,123.6 	"/>
	<polygon class="st0" points="261.6,123.6 370.4,138.4 253.9,138.4 	"/>
	<polygon class="st0" points="261.6,123.6 362.7,123.6 370.4,138.4 	"/>
	<polygon class="st0" points="253.9,138.4 370.6,139 253.6,139 	"/>
	<polygon class="st0" points="253.9,138.4 370.4,138.4 370.6,139 	"/>
	<polygon class="st0" points="253.6,139 385.2,170.1 239,170.1 	"/>
	<polygon class="st0" points="253.6,139 370.6,139 385.2,170.1 	"/>
	<polygon class="st0" points="239,170.1 385.5,170.7 238.7,170.7 	"/>
	<polygon class="st0" points="239,170.1 385.2,170.1 385.5,170.7 	"/>
	<polygon class="st0" points="238.7,170.7 391.7,185.8 232.4,185.8 	"/>
	<polygon class="st0" points="238.7,170.7 385.5,170.7 391.7,185.8 	"/>
	<polygon class="st0" points="232.4,185.8 392,186.4 232.1,186.4 	"/>
	<polygon class="st0" points="232.4,185.8 391.7,185.8 392,186.4 	"/>
	<polygon class="st0" points="232.1,186.4 397.4,200.8 226.6,200.8 	"/>
	<polygon class="st0" points="232.1,186.4 392,186.4 397.4,200.8 	"/>
	<polygon class="st0" points="226.6,200.8 397.6,201.4 226.3,201.4 	"/>
	<polygon class="st0" points="226.6,200.8 397.4,200.8 397.6,201.4 	"/>
	<polygon class="st0" points="226.3,201.4 402.1,214.9 221.7,214.9 	"/>
	<polygon class="st0" points="226.3,201.4 397.6,201.4 402.1,214.9 	"/>
	<polygon class="st0" points="221.7,214.9 402.3,215.5 221.6,215.5 	"/>
	<polygon class="st0" points="221.7,214.9 402.1,214.9 402.3,215.5 	"/>
	<polygon class="st0" points="221.6,215.5 405.7,227.7 218.1,227.7 	"/>
	<polygon class="st0" points="221.6,215.5 402.3,215.5 405.7,227.7 	"/>
	<polygon class="st0" points="218.1,227.7 405.8,228.1 218,228.1 	"/>
	<polygon class="st0" points="218.1,227.7 405.7,227.7 405.8,228.1 	"/>
	<polygon class="st0" points="218,228.1 408,238.8 215.7,238.8 	"/>
	<polygon class="st0" points="218,228.1 405.8,228.1 408,238.8 	"/>
	<polygon class="st0" points="215.7,238.8 408,239.1 215.7,239.1 	"/>
	<polygon class="st0" points="215.7,238.8 408,238.8 408,239.1 	"/>
	<polygon class="st0" points="215.7,239.1 408.8,247.9 214.9,247.9 	"/>
	<polygon class="st0" points="215.7,239.1 408,239.1 408.8,247.9 	"/>
	<polygon class="st0" points="214.9,247.9 408.2,257.8 215.3,257.8 	"/>
	<polygon class="st0" points="214.9,247.9 408.8,247.9 408.2,257.8 	"/>
	<polygon class="st0" points="215.3,257.8 406.8,267.4 216.8,267.4 	"/>
	<polygon class="st0" points="215.3,257.8 408.2,257.8 406.8,267.4 	"/>
	<polygon class="st0" points="216.8,267.4 404.4,276.7 219.2,276.7 	"/>
	<polygon class="st0" points="216.8,267.4 406.8,267.4 404.4,276.7 	"/>
	<polygon class="st0" points="219.2,276.7 401.1,285.7 222.5,285.7 	"/>
	<polygon class="st0" points="219.2,276.7 404.4,276.7 401.1,285.7 	"/>
	<polygon class="st0" points="222.5,285.7 397,294.1 226.6,294.1 	"/>
	<polygon class="st0" points="222.5,285.7 401.1,285.7 397,294.1 	"/>
	<polygon class="st0" points="226.6,294.1 392.2,302.1 231.4,302.1 	"/>
	<polygon class="st0" points="226.6,294.1 397,294.1 392.2,302.1 	"/>
	<polygon class="st0" points="231.4,302.1 386.6,309.6 237,309.6 	"/>
	<polygon class="st0" points="231.4,302.1 392.2,302.1 386.6,309.6 	"/>
	<polygon class="st0" points="237,309.6 380.3,316.5 243.2,316.5 	"/>
	<polygon class="st0" points="237,309.6 386.6,309.6 380.3,316.5 	"/>
	<polygon class="st0" points="243.2,316.5 373.5,322.8 250.2,322.8 	"/>
	<polygon class="st0" points="243.2,316.5 380.3,316.5 373.5,322.8 	"/>
	<polygon class="st0" points="250.2,322.8 366,328.3 257.6,328.3 	"/>
	<polygon class="st0" points="250.2,322.8 373.5,322.8 366,328.3 	"/>
	<polygon class="st0" points="257.6,328.3 358,333.2 265.6,333.2 	"/>
	<polygon class="st0" points="257.6,328.3 366,328.3 358,333.2 	"/>
	<polygon class="st0" points="265.6,333.2 349.6,337.3 274.1,337.3 	"/>
	<polygon class="st0" points="265.6,333.2 358,333.2 349.6,337.3 	"/>
	<polygon class="st0" points="274.1,337.3 340.6,340.5 283,340.5 	"/>
	<polygon class="st0" points="274.1,337.3 349.6,337.3 340.6,340.5 	"/>
	<polygon class="st0" points="283,340.5 331.3,342.9 292.2,342.9 	"/>
	<polygon class="st0" points="283,340.5 340.6,340.5 331.3,342.9 	"/>
	<polygon class="st0" points="301.9,344.4 321.7,344.4 311.8,344.9 	"/>
	<polygon class="st0" points="292.2,342.9 321.7,344.4 301.9,344.4 	"/>
	<polygon class="st0" points="292.2,342.9 331.3,342.9 321.7,344.4 	"/>
	<polygon class="st1" points="311.8,60.6 309.2,61.1 306.4,62.2 303.4,64.3 300.2,67 293.2,74.4 285.7,84.1 277.8,95.9 269.7,109.1 
		261.6,123.6 253.6,139 238.7,170.7 232.1,186.4 226.3,201.4 221.6,215.5 218,228.1 215.7,239.1 214.9,247.9 215.3,257.8 
		216.8,267.4 219.2,276.7 222.5,285.7 226.6,294.1 231.4,302.1 237,309.6 243.2,316.5 250.2,322.8 257.6,328.3 265.6,333.2 
		274.1,337.3 283,340.5 292.2,342.9 301.9,344.4 311.8,344.9 321.7,344.4 331.3,342.9 340.6,340.5 349.6,337.3 358,333.2 366,328.3 
		373.5,322.8 380.3,316.5 386.6,309.6 392.2,302.1 397,294.1 401.1,285.7 404.4,276.7 406.8,267.4 408.2,257.8 408.8,247.9 
		408,238.8 405.7,227.7 402.1,214.9 397.4,200.8 391.7,185.8 385.2,170.1 370.4,138.4 362.4,123.2 354.4,108.7 346.2,95.6 338.3,84 
		330.8,74.3 323.7,66.9 320.4,64.2 317.3,62.2 314.4,61 311.8,60.6 	"/>
</g>
</svg>
